<svg width="2753" height="1427" viewBox="0 0 2753 1427" fill="none" xmlns="http://www.w3.org/2000/svg">
<rect width="2753" height="1427" fill="white"/>
<mask id="mask0_17_226" style="mask-type:luminance" maskUnits="userSpaceOnUse" x="100" y="192" width="731" height="674">
<path d="M830.559 192H100V865.126H830.559V192Z" fill="white"/>
</mask>
<g mask="url(#mask0_17_226)">
<path d="M830.56 384.978L591.635 609.797L830.56 865.126V384.978Z" fill="#F0AB1F"/>
<path d="M640.223 865.126L168.921 360.856V865.126H100V192L738.665 865.126H640.223Z" fill="#0D1B2A"/>
<path d="M759.341 359.707L446.556 642.282L396.221 591.947L830.559 192V293.084L759.341 359.707Z" fill="#00A9B7"/>
<path d="M571.302 793.678L344.828 549.078L393.073 500.833L738.664 865.125H638.155L571.325 793.678H571.302Z" fill="#00A9B7"/>
</g>
<path d="M1119.27 192H1050.35V865.126H1119.27V192Z" fill="#0D1B2A"/>
<path d="M1879.28 865.126L1407.98 360.856V865.126H1339.06V192L1878.94 761.744L1879.28 865.126Z" fill="#0D1B2A"/>
<path d="M1947.27 192H1878.35V865.126H1947.27V192Z" fill="#0D1B2A"/>
<path d="M2340.76 192H2167.43V260.76H2340.76C2476.92 260.76 2587.7 374.387 2587.7 514.043V543.082C2587.7 682.738 2476.92 796.366 2340.76 796.366H2167.7V865.126H2340.76C2513.89 865.126 2654.74 720.645 2654.74 543.082V514.043C2654.69 336.481 2513.86 192 2340.76 192Z" fill="#0D1B2A"/>
<path d="M105.626 1056.59V1006.38H113.247L132.191 1041.35H129.912L148.784 1006.38H156.262V1056.59H148.001V1019.91H149.568L133.615 1048.97H128.274L112.178 1019.84H113.888V1056.59H105.626ZM181.556 1056.59V1006.38H190.672V1056.59H181.556ZM215.83 1056.59V1006.38H222.667L251.51 1043.84H249.659V1006.38H258.134V1056.59H251.368L222.525 1019.06H224.305V1056.59H215.83ZM283.348 1056.59V1006.38H292.464V1056.59H283.348ZM334.928 1057.3C332.316 1057.3 329.8 1057.06 327.379 1056.59C325.005 1056.16 322.797 1055.52 320.755 1054.67C318.761 1053.81 316.981 1052.79 315.414 1051.6L318.192 1044.41C319.758 1045.5 321.396 1046.45 323.106 1047.26C324.862 1048.02 326.714 1048.61 328.661 1049.04C330.655 1049.42 332.744 1049.61 334.928 1049.61C338.679 1049.61 341.409 1048.99 343.118 1047.76C344.827 1046.47 345.682 1044.84 345.682 1042.84C345.682 1041.75 345.421 1040.82 344.898 1040.07C344.376 1039.26 343.521 1038.57 342.334 1038C341.148 1037.43 339.581 1036.96 337.634 1036.58L329.8 1034.94C325.29 1033.99 321.919 1032.4 319.687 1030.17C317.503 1027.89 316.411 1024.9 316.411 1021.19C316.411 1018.06 317.242 1015.33 318.904 1013C320.566 1010.68 322.868 1008.87 325.812 1007.59C328.756 1006.31 332.15 1005.67 335.996 1005.67C338.275 1005.67 340.459 1005.9 342.548 1006.38C344.685 1006.81 346.631 1007.47 348.388 1008.37C350.192 1009.23 351.759 1010.27 353.088 1011.51L350.311 1018.34C348.317 1016.68 346.133 1015.45 343.759 1014.64C341.385 1013.79 338.774 1013.36 335.925 1013.36C333.741 1013.36 331.865 1013.67 330.299 1014.28C328.732 1014.9 327.521 1015.78 326.667 1016.92C325.859 1018.01 325.456 1019.32 325.456 1020.84C325.456 1022.55 326.026 1023.92 327.165 1024.97C328.305 1025.96 330.251 1026.75 333.005 1027.32L340.768 1028.96C345.468 1029.95 348.958 1031.52 351.237 1033.66C353.563 1035.79 354.726 1038.64 354.726 1042.2C354.726 1045.19 353.919 1047.83 352.305 1050.11C350.691 1052.39 348.388 1054.17 345.397 1055.45C342.453 1056.68 338.964 1057.3 334.928 1057.3ZM387.858 1056.59V1014H370.623V1006.38H414.209V1014H396.974V1056.59H387.858ZM434.227 1056.59V1006.38H456.02C461.528 1006.38 465.777 1007.71 468.768 1010.37C471.759 1012.98 473.255 1016.66 473.255 1021.41C473.255 1024.49 472.567 1027.15 471.19 1029.38C469.86 1031.61 467.914 1033.32 465.35 1034.51C462.786 1035.7 459.676 1036.29 456.02 1036.29L456.661 1035.22H459.011C460.958 1035.22 462.643 1035.7 464.068 1036.65C465.54 1037.6 466.822 1039.09 467.914 1041.13L476.317 1056.59H466.276L457.587 1040.56C457.017 1039.52 456.376 1038.71 455.664 1038.14C454.952 1037.53 454.145 1037.1 453.243 1036.86C452.341 1036.62 451.296 1036.5 450.109 1036.5H443.343V1056.59H434.227ZM443.343 1029.74H454.453C457.729 1029.74 460.198 1029.07 461.86 1027.74C463.569 1026.37 464.424 1024.33 464.424 1021.62C464.424 1018.96 463.569 1016.97 461.86 1015.64C460.198 1014.26 457.729 1013.57 454.453 1013.57H443.343V1029.74ZM508.703 1056.59V1030.74L510.626 1036.22L489.403 1006.38H500.014L514.4 1026.82H512.406L526.863 1006.38H537.047L515.967 1036.22L517.819 1030.74V1056.59H508.703ZM610.95 1057.3C607.294 1057.3 603.971 1056.71 600.98 1055.52C598.036 1054.29 595.496 1052.53 593.359 1050.25C591.27 1047.97 589.656 1045.24 588.516 1042.06C587.377 1038.88 586.807 1035.34 586.807 1031.45C586.807 1027.51 587.377 1023.97 588.516 1020.84C589.656 1017.66 591.27 1014.95 593.359 1012.72C595.496 1010.44 598.036 1008.71 600.98 1007.52C603.971 1006.28 607.294 1005.67 610.95 1005.67C614.606 1005.67 617.906 1006.28 620.849 1007.52C623.841 1008.71 626.381 1010.41 628.47 1012.65C630.606 1014.88 632.244 1017.58 633.384 1020.77C634.523 1023.9 635.093 1027.44 635.093 1031.38C635.093 1035.32 634.523 1038.88 633.384 1042.06C632.244 1045.24 630.606 1047.97 628.47 1050.25C626.381 1052.53 623.841 1054.29 620.849 1055.52C617.906 1056.71 614.606 1057.3 610.95 1057.3ZM610.95 1049.47C614.036 1049.47 616.648 1048.75 618.784 1047.33C620.968 1045.91 622.63 1043.84 623.769 1041.13C624.956 1038.43 625.55 1035.2 625.55 1031.45C625.55 1027.65 624.98 1024.42 623.841 1021.76C622.701 1019.06 621.039 1017.01 618.855 1015.64C616.671 1014.21 614.036 1013.5 610.95 1013.5C607.911 1013.5 605.3 1014.21 603.116 1015.64C600.932 1017.01 599.247 1019.06 598.06 1021.76C596.92 1024.42 596.35 1027.65 596.35 1031.45C596.35 1035.2 596.92 1038.43 598.06 1041.13C599.247 1043.84 600.932 1045.91 603.116 1047.33C605.3 1048.75 607.911 1049.47 610.95 1049.47ZM658.606 1056.59V1006.38H691.438V1013.64H667.722V1027.82H689.942V1035.08H667.722V1056.59H658.606ZM746.279 1056.59V1006.38H755.395V1056.59H746.279ZM780.553 1056.59V1006.38H787.39L816.233 1043.84H814.382V1006.38H822.857V1056.59H816.091L787.248 1019.06H789.028V1056.59H780.553ZM848.071 1056.59V1006.38H854.908L883.751 1043.84H881.9V1006.38H890.375V1056.59H883.609L854.766 1019.06H856.546V1056.59H848.071ZM938.094 1057.3C934.438 1057.3 931.115 1056.71 928.124 1055.52C925.18 1054.29 922.64 1052.53 920.503 1050.25C918.414 1047.97 916.8 1045.24 915.66 1042.06C914.521 1038.88 913.951 1035.34 913.951 1031.45C913.951 1027.51 914.521 1023.97 915.66 1020.84C916.8 1017.66 918.414 1014.95 920.503 1012.72C922.64 1010.44 925.18 1008.71 928.124 1007.52C931.115 1006.28 934.438 1005.67 938.094 1005.67C941.75 1005.67 945.05 1006.28 947.993 1007.52C950.985 1008.71 953.525 1010.41 955.614 1012.65C957.75 1014.88 959.388 1017.58 960.528 1020.77C961.667 1023.9 962.237 1027.44 962.237 1031.38C962.237 1035.32 961.667 1038.88 960.528 1042.06C959.388 1045.24 957.75 1047.97 955.614 1050.25C953.525 1052.53 950.985 1054.29 947.993 1055.52C945.05 1056.71 941.75 1057.3 938.094 1057.3ZM938.094 1049.47C941.18 1049.47 943.792 1048.75 945.928 1047.33C948.112 1045.91 949.774 1043.84 950.913 1041.13C952.1 1038.43 952.694 1035.2 952.694 1031.45C952.694 1027.65 952.124 1024.42 950.985 1021.76C949.845 1019.06 948.183 1017.01 945.999 1015.64C943.815 1014.21 941.18 1013.5 938.094 1013.5C935.056 1013.5 932.444 1014.21 930.26 1015.64C928.076 1017.01 926.391 1019.06 925.204 1021.76C924.064 1024.42 923.494 1027.65 923.494 1031.45C923.494 1035.2 924.064 1038.43 925.204 1041.13C926.391 1043.84 928.076 1045.91 930.26 1047.33C932.444 1048.75 935.056 1049.47 938.094 1049.47ZM1000.59 1056.59L978.231 1006.38H987.988L1006.15 1048.47H1003.09L1021.18 1006.38H1030.58L1008.21 1056.59H1000.59ZM1039.86 1056.59L1062.58 1006.38H1070.05L1092.77 1056.59H1083.51L1077.46 1042.49L1081.31 1044.98H1051.25L1055.1 1042.49L1049.12 1056.59H1039.86ZM1066.21 1016.28L1056.24 1039.99L1054.39 1037.72H1078.17L1076.39 1039.99L1066.35 1016.28H1066.21ZM1119.05 1056.59V1014H1101.82V1006.38H1145.4V1014H1128.17V1056.59H1119.05ZM1165.42 1056.59V1006.38H1174.54V1056.59H1165.42ZM1222.2 1057.3C1218.55 1057.3 1215.22 1056.71 1212.23 1055.52C1209.29 1054.29 1206.75 1052.53 1204.61 1050.25C1202.52 1047.97 1200.91 1045.24 1199.77 1042.06C1198.63 1038.88 1198.06 1035.34 1198.06 1031.45C1198.06 1027.51 1198.63 1023.97 1199.77 1020.84C1200.91 1017.66 1202.52 1014.95 1204.61 1012.72C1206.75 1010.44 1209.29 1008.71 1212.23 1007.52C1215.22 1006.28 1218.55 1005.67 1222.2 1005.67C1225.86 1005.67 1229.16 1006.28 1232.1 1007.52C1235.09 1008.71 1237.63 1010.41 1239.72 1012.65C1241.86 1014.88 1243.5 1017.58 1244.64 1020.77C1245.77 1023.9 1246.34 1027.44 1246.34 1031.38C1246.34 1035.32 1245.77 1038.88 1244.64 1042.06C1243.5 1045.24 1241.86 1047.97 1239.72 1050.25C1237.63 1052.53 1235.09 1054.29 1232.1 1055.52C1229.16 1056.71 1225.86 1057.3 1222.2 1057.3ZM1222.2 1049.47C1225.29 1049.47 1227.9 1048.75 1230.04 1047.33C1232.22 1045.91 1233.88 1043.84 1235.02 1041.13C1236.21 1038.43 1236.8 1035.2 1236.8 1031.45C1236.8 1027.65 1236.23 1024.42 1235.09 1021.76C1233.95 1019.06 1232.29 1017.01 1230.11 1015.64C1227.92 1014.21 1225.29 1013.5 1222.2 1013.5C1219.16 1013.5 1216.55 1014.21 1214.37 1015.64C1212.18 1017.01 1210.5 1019.06 1209.31 1021.76C1208.17 1024.42 1207.6 1027.65 1207.6 1031.45C1207.6 1035.2 1208.17 1038.43 1209.31 1041.13C1210.5 1043.84 1212.18 1045.91 1214.37 1047.33C1216.55 1048.75 1219.16 1049.47 1222.2 1049.47ZM1269.86 1056.59V1006.38H1276.69L1305.54 1043.84H1303.69V1006.38H1312.16V1056.59H1305.4L1276.55 1019.06H1278.33V1056.59H1269.86ZM1386.77 1057.3C1383.21 1057.3 1380.12 1056.73 1377.51 1055.59C1374.9 1054.45 1372.88 1052.88 1371.46 1050.89C1370.08 1048.85 1369.39 1046.47 1369.39 1043.77C1369.39 1041.63 1369.79 1039.69 1370.6 1037.93C1371.41 1036.12 1372.57 1034.49 1374.09 1033.01C1375.61 1031.5 1377.44 1030.12 1379.57 1028.88L1382 1027.46L1380.71 1029.38C1378.62 1027.29 1377.11 1025.32 1376.16 1023.47C1375.25 1021.57 1374.8 1019.63 1374.8 1017.63C1374.8 1015.26 1375.37 1013.17 1376.51 1011.36C1377.65 1009.56 1379.27 1008.16 1381.35 1007.16C1383.44 1006.17 1385.89 1005.67 1388.69 1005.67C1391.3 1005.67 1393.53 1006.12 1395.38 1007.02C1397.28 1007.92 1398.76 1009.2 1399.8 1010.87C1400.84 1012.48 1401.37 1014.4 1401.37 1016.63C1401.37 1018.44 1401.01 1020.15 1400.3 1021.76C1399.59 1023.38 1398.45 1024.92 1396.88 1026.39C1395.31 1027.86 1393.22 1029.31 1390.61 1030.74L1390.68 1028.6L1402.79 1041.49H1400.87C1402.01 1039.54 1402.91 1037.26 1403.57 1034.65C1404.24 1032.04 1404.64 1029.31 1404.79 1026.46H1412.19C1412.05 1030.36 1411.43 1034.04 1410.34 1037.5C1409.3 1040.97 1407.85 1044.03 1406 1046.69L1405.93 1044.48L1417.96 1056.59H1407.14L1401.01 1050.11H1403.08C1400.99 1052.34 1398.52 1054.1 1395.67 1055.38C1392.87 1056.66 1389.9 1057.3 1386.77 1057.3ZM1387.27 1050.25C1389.54 1050.25 1391.56 1049.82 1393.32 1048.97C1395.12 1048.07 1396.76 1046.74 1398.23 1044.98L1398.02 1047.26L1383.35 1032.09L1387.05 1032.44L1384.99 1033.66C1383.37 1034.61 1382.07 1035.55 1381.07 1036.5C1380.07 1037.41 1379.34 1038.4 1378.86 1039.5C1378.43 1040.54 1378.22 1041.73 1378.22 1043.06C1378.22 1045.29 1379 1047.04 1380.57 1048.33C1382.14 1049.61 1384.37 1050.25 1387.27 1050.25ZM1388.69 1012.01C1386.98 1012.01 1385.6 1012.5 1384.56 1013.5C1383.52 1014.45 1382.99 1015.76 1382.99 1017.42C1382.99 1018.32 1383.14 1019.17 1383.42 1019.98C1383.71 1020.74 1384.2 1021.6 1384.92 1022.55C1385.63 1023.45 1386.6 1024.56 1387.84 1025.89L1385.84 1025.75C1387.84 1024.61 1389.4 1023.59 1390.54 1022.69C1391.73 1021.79 1392.58 1020.88 1393.11 1019.98C1393.63 1019.08 1393.89 1018.08 1393.89 1016.99C1393.89 1015.38 1393.41 1014.14 1392.46 1013.29C1391.52 1012.43 1390.26 1012.01 1388.69 1012.01ZM1470.17 1056.59V1006.38H1477.01L1505.85 1043.84H1504V1006.38H1512.48V1056.59H1505.71L1476.87 1019.06H1478.65V1056.59H1470.17ZM1532.28 1056.59L1555 1006.38H1562.47L1585.19 1056.59H1575.93L1569.88 1042.49L1573.73 1044.98H1543.67L1547.52 1042.49L1541.54 1056.59H1532.28ZM1558.63 1016.28L1548.66 1039.99L1546.81 1037.72H1570.59L1568.81 1039.99L1558.77 1016.28H1558.63ZM1611.47 1056.59V1014H1594.24V1006.38H1637.82V1014H1620.59V1056.59H1611.47ZM1657.84 1056.59V1006.38H1666.96V1056.59H1657.84ZM1714.62 1057.3C1710.97 1057.3 1707.64 1056.71 1704.65 1055.52C1701.71 1054.29 1699.17 1052.53 1697.03 1050.25C1694.94 1047.97 1693.33 1045.24 1692.19 1042.06C1691.05 1038.88 1690.48 1035.34 1690.48 1031.45C1690.48 1027.51 1691.05 1023.97 1692.19 1020.84C1693.33 1017.66 1694.94 1014.95 1697.03 1012.72C1699.17 1010.44 1701.71 1008.71 1704.65 1007.52C1707.64 1006.28 1710.97 1005.67 1714.62 1005.67C1718.28 1005.67 1721.58 1006.28 1724.52 1007.52C1727.51 1008.71 1730.05 1010.41 1732.14 1012.65C1734.28 1014.88 1735.92 1017.58 1737.06 1020.77C1738.19 1023.9 1738.76 1027.44 1738.76 1031.38C1738.76 1035.32 1738.19 1038.88 1737.06 1042.06C1735.92 1045.24 1734.28 1047.97 1732.14 1050.25C1730.05 1052.53 1727.51 1054.29 1724.52 1055.52C1721.58 1056.71 1718.28 1057.3 1714.62 1057.3ZM1714.62 1049.47C1717.71 1049.47 1720.32 1048.75 1722.46 1047.33C1724.64 1045.91 1726.3 1043.84 1727.44 1041.13C1728.63 1038.43 1729.22 1035.2 1729.22 1031.45C1729.22 1027.65 1728.65 1024.42 1727.51 1021.76C1726.37 1019.06 1724.71 1017.01 1722.53 1015.64C1720.34 1014.21 1717.71 1013.5 1714.62 1013.5C1711.58 1013.5 1708.97 1014.21 1706.79 1015.64C1704.6 1017.01 1702.92 1019.06 1701.73 1021.76C1700.59 1024.42 1700.02 1027.65 1700.02 1031.45C1700.02 1035.2 1700.59 1038.43 1701.73 1041.13C1702.92 1043.84 1704.6 1045.91 1706.79 1047.33C1708.97 1048.75 1711.58 1049.47 1714.62 1049.47ZM1762.28 1056.59V1006.38H1769.11L1797.96 1043.84H1796.11V1006.38H1804.58V1056.59H1797.82L1768.97 1019.06H1770.75V1056.59H1762.28ZM1824.38 1056.59L1847.1 1006.38H1854.58L1877.3 1056.59H1868.04L1861.99 1042.49L1865.83 1044.98H1835.78L1839.62 1042.49L1833.64 1056.59H1824.38ZM1850.73 1016.28L1840.76 1039.99L1838.91 1037.72H1862.7L1860.92 1039.99L1850.88 1016.28H1850.73ZM1897.04 1056.59V1006.38H1906.15V1048.83H1930.22V1056.59H1897.04ZM1984.71 1056.59V1006.38H2003.37C2008.97 1006.38 2013.72 1007.35 2017.61 1009.3C2021.55 1011.25 2024.54 1014.09 2026.58 1017.85C2028.67 1021.55 2029.72 1026.08 2029.72 1031.45C2029.72 1036.81 2028.67 1041.37 2026.58 1045.12C2024.54 1048.87 2021.55 1051.72 2017.61 1053.67C2013.72 1055.61 2008.97 1056.59 2003.37 1056.59H1984.71ZM1993.82 1049.04H2002.8C2008.64 1049.04 2012.98 1047.59 2015.83 1044.69C2018.73 1041.75 2020.18 1037.34 2020.18 1031.45C2020.18 1025.56 2018.73 1021.17 2015.83 1018.27C2012.93 1015.38 2008.59 1013.93 2002.8 1013.93H1993.82V1049.04ZM2053.2 1056.59V1006.38H2086.6V1013.64H2061.96V1027.46H2085.03V1034.72H2061.96V1049.32H2086.6V1056.59H2053.2ZM2125.83 1056.59L2103.46 1006.38H2113.22L2131.38 1048.47H2128.32L2146.41 1006.38H2155.81L2133.45 1056.59H2125.83ZM2174.74 1056.59V1006.38H2208.15V1013.64H2183.5V1027.46H2206.58V1034.72H2183.5V1049.32H2208.15V1056.59H2174.74ZM2231.48 1056.59V1006.38H2240.6V1048.83H2264.67V1056.59H2231.48ZM2305.51 1057.3C2301.85 1057.3 2298.53 1056.71 2295.54 1055.52C2292.59 1054.29 2290.05 1052.53 2287.92 1050.25C2285.83 1047.97 2284.21 1045.24 2283.08 1042.06C2281.94 1038.88 2281.37 1035.34 2281.37 1031.45C2281.37 1027.51 2281.94 1023.97 2283.08 1020.84C2284.21 1017.66 2285.83 1014.95 2287.92 1012.72C2290.05 1010.44 2292.59 1008.71 2295.54 1007.52C2298.53 1006.28 2301.85 1005.67 2305.51 1005.67C2309.16 1005.67 2312.46 1006.28 2315.41 1007.52C2318.4 1008.71 2320.94 1010.41 2323.03 1012.65C2325.16 1014.88 2326.8 1017.58 2327.94 1020.77C2329.08 1023.9 2329.65 1027.44 2329.65 1031.38C2329.65 1035.32 2329.08 1038.88 2327.94 1042.06C2326.8 1045.24 2325.16 1047.97 2323.03 1050.25C2320.94 1052.53 2318.4 1054.29 2315.41 1055.52C2312.46 1056.71 2309.16 1057.3 2305.51 1057.3ZM2305.51 1049.47C2308.59 1049.47 2311.21 1048.75 2313.34 1047.33C2315.53 1045.91 2317.19 1043.84 2318.33 1041.13C2319.51 1038.43 2320.11 1035.2 2320.11 1031.45C2320.11 1027.65 2319.54 1024.42 2318.4 1021.76C2317.26 1019.06 2315.6 1017.01 2313.41 1015.64C2311.23 1014.21 2308.59 1013.5 2305.51 1013.5C2302.47 1013.5 2299.86 1014.21 2297.67 1015.64C2295.49 1017.01 2293.81 1019.06 2292.62 1021.76C2291.48 1024.42 2290.91 1027.65 2290.91 1031.45C2290.91 1035.2 2291.48 1038.43 2292.62 1041.13C2293.81 1043.84 2295.49 1045.91 2297.67 1047.33C2299.86 1048.75 2302.47 1049.47 2305.51 1049.47ZM2353.16 1056.59V1006.38H2374.96C2378.66 1006.38 2381.79 1007 2384.36 1008.23C2386.92 1009.47 2388.87 1011.25 2390.2 1013.57C2391.53 1015.9 2392.19 1018.72 2392.19 1022.05C2392.19 1025.32 2391.53 1028.15 2390.2 1030.52C2388.87 1032.85 2386.92 1034.65 2384.36 1035.93C2381.79 1037.17 2378.66 1037.79 2374.96 1037.79H2362.28V1056.59H2353.16ZM2362.28 1030.59H2373.53C2376.76 1030.59 2379.21 1029.88 2380.87 1028.46C2382.53 1026.98 2383.36 1024.85 2383.36 1022.05C2383.36 1019.25 2382.53 1017.13 2380.87 1015.71C2379.21 1014.28 2376.76 1013.57 2373.53 1013.57H2362.28V1030.59ZM2414.01 1056.59V1006.38H2421.63L2440.57 1041.35H2438.29L2457.17 1006.38H2464.65V1056.59H2456.38V1019.91H2457.95L2442 1048.97H2436.66L2420.56 1019.84H2422.27V1056.59H2414.01ZM2489.94 1056.59V1006.38H2523.34V1013.64H2498.7V1027.46H2521.77V1034.72H2498.7V1049.32H2523.34V1056.59H2489.94ZM2546.68 1056.59V1006.38H2553.51L2582.36 1043.84H2580.51V1006.38H2588.98V1056.59H2582.22L2553.37 1019.06H2555.15V1056.59H2546.68ZM2626.3 1056.59V1014H2609.07V1006.38H2652.65V1014H2635.42V1056.59H2626.3Z" fill="#0D1B2A"/>
<path d="M410.898 1214.59V1172.48H417.11V1214.59H410.898ZM445.339 1214.59V1172.48H450.058L475.683 1206.29H474.189V1172.48H479.924V1214.59H475.324L449.699 1180.78H451.073V1214.59H445.339ZM508.246 1214.59V1172.48H512.965L538.589 1206.29H537.096V1172.48H542.83V1214.59H538.231L512.606 1180.78H513.98V1214.59H508.246ZM589.431 1215.13C586.444 1215.13 583.736 1214.63 581.307 1213.64C578.878 1212.64 576.787 1211.19 575.035 1209.28C573.323 1207.36 572.009 1205.1 571.093 1202.47C570.177 1199.8 569.719 1196.81 569.719 1193.51C569.719 1190.2 570.177 1187.24 571.093 1184.61C572.009 1181.94 573.323 1179.67 575.035 1177.8C576.748 1175.89 578.818 1174.43 581.247 1173.44C583.676 1172.44 586.404 1171.94 589.431 1171.94C592.417 1171.94 595.125 1172.44 597.554 1173.44C599.983 1174.43 602.054 1175.87 603.766 1177.74C605.518 1179.61 606.852 1181.88 607.768 1184.55C608.684 1187.18 609.142 1190.14 609.142 1193.45C609.142 1196.75 608.684 1199.74 607.768 1202.41C606.852 1205.08 605.518 1207.36 603.766 1209.28C602.054 1211.19 599.983 1212.64 597.554 1213.64C595.125 1214.63 592.417 1215.13 589.431 1215.13ZM589.431 1209.75C592.218 1209.75 594.587 1209.12 596.539 1207.84C598.53 1206.57 600.043 1204.72 601.078 1202.29C602.153 1199.86 602.691 1196.93 602.691 1193.51C602.691 1190.08 602.173 1187.16 601.138 1184.73C600.103 1182.3 598.589 1180.47 596.598 1179.23C594.647 1177.96 592.258 1177.32 589.431 1177.32C586.643 1177.32 584.254 1177.96 582.263 1179.23C580.312 1180.47 578.798 1182.3 577.723 1184.73C576.688 1187.16 576.17 1190.08 576.17 1193.51C576.17 1196.89 576.688 1199.82 577.723 1202.29C578.798 1204.72 580.312 1206.57 582.263 1207.84C584.254 1209.12 586.643 1209.75 589.431 1209.75ZM648.313 1214.59L629.737 1172.48H636.367L652.255 1209.34H650.045L665.874 1172.48H672.206L653.629 1214.59H648.313ZM687.709 1214.59L706.465 1172.48H711.602L730.417 1214.59H724.085L718.949 1202.65L721.756 1204.32H696.31L699.058 1202.65L693.981 1214.59H687.709ZM708.973 1179.35L699.954 1200.73L698.461 1199.3H719.546L718.172 1200.73L709.093 1179.35H708.973ZM760.114 1214.59V1177.68H745.181V1172.48H781.199V1177.68H766.266V1214.59H760.114ZM804.872 1214.59V1172.48H832.11V1177.5H810.846V1190.7H830.856V1195.72H810.846V1209.57H832.11V1214.59H804.872ZM903.045 1214.59V1177.68H888.112V1172.48H924.13V1177.68H909.197V1214.59H903.045ZM963.456 1215.13C960.469 1215.13 957.761 1214.63 955.332 1213.64C952.903 1212.64 950.813 1211.19 949.06 1209.28C947.348 1207.36 946.034 1205.1 945.118 1202.47C944.202 1199.8 943.744 1196.81 943.744 1193.51C943.744 1190.2 944.202 1187.24 945.118 1184.61C946.034 1181.94 947.348 1179.67 949.06 1177.8C950.773 1175.89 952.843 1174.43 955.273 1173.44C957.702 1172.44 960.429 1171.94 963.456 1171.94C966.442 1171.94 969.15 1172.44 971.579 1173.44C974.008 1174.43 976.079 1175.87 977.791 1177.74C979.543 1179.61 980.877 1181.88 981.793 1184.55C982.709 1187.18 983.167 1190.14 983.167 1193.45C983.167 1196.75 982.709 1199.74 981.793 1202.41C980.877 1205.08 979.543 1207.36 977.791 1209.28C976.079 1211.19 974.008 1212.64 971.579 1213.64C969.15 1214.63 966.442 1215.13 963.456 1215.13ZM963.456 1209.75C966.243 1209.75 968.613 1209.12 970.564 1207.84C972.555 1206.57 974.068 1204.72 975.103 1202.29C976.178 1199.86 976.716 1196.93 976.716 1193.51C976.716 1190.08 976.198 1187.16 975.163 1184.73C974.128 1182.3 972.615 1180.47 970.623 1179.23C968.672 1177.96 966.283 1177.32 963.456 1177.32C960.668 1177.32 958.279 1177.96 956.288 1179.23C954.337 1180.47 952.824 1182.3 951.748 1184.73C950.713 1187.16 950.195 1190.08 950.195 1193.51C950.195 1196.89 950.713 1199.82 951.748 1202.29C952.824 1204.72 954.337 1206.57 956.288 1207.84C958.279 1209.12 960.668 1209.75 963.456 1209.75ZM1010.01 1214.59V1172.48H1024.88C1029.5 1172.48 1033.42 1173.3 1036.65 1174.93C1039.88 1176.52 1042.32 1178.89 1044 1182.04C1045.71 1185.14 1046.57 1188.97 1046.57 1193.51C1046.57 1198.05 1045.71 1201.89 1044 1205.04C1042.32 1208.14 1039.88 1210.51 1036.65 1212.14C1033.42 1213.78 1029.5 1214.59 1024.88 1214.59H1010.01ZM1016.22 1209.4H1024.52C1029.74 1209.4 1033.64 1208.08 1036.23 1205.45C1038.82 1202.79 1040.11 1198.8 1040.11 1193.51C1040.11 1188.21 1038.8 1184.25 1036.17 1181.62C1033.58 1178.99 1029.7 1177.68 1024.52 1177.68H1016.22V1209.4ZM1068.33 1214.59L1087.08 1172.48H1092.22L1111.03 1214.59H1104.7L1099.57 1202.65L1102.37 1204.32H1076.93L1079.67 1202.65L1074.6 1214.59H1068.33ZM1089.59 1179.35L1080.57 1200.73L1079.08 1199.3H1100.16L1098.79 1200.73L1089.71 1179.35H1089.59ZM1141.25 1214.59V1192.85L1142.63 1196.79L1125.12 1172.48H1132.29L1145.19 1190.46H1143.76L1156.66 1172.48H1163.53L1146.15 1196.79L1147.4 1192.85V1214.59H1141.25ZM1180.62 1214.59V1207.48H1187.72V1214.59H1180.62Z" fill="#00A9B7"/>
<path d="M1259.16 1214.59V1177.68H1244.23V1172.48H1280.25V1177.68H1265.31V1214.59H1259.16ZM1303.92 1214.59V1172.48H1321.36C1325.9 1172.48 1329.41 1173.56 1331.87 1175.71C1334.34 1177.86 1335.58 1180.9 1335.58 1184.85C1335.58 1187.39 1335.02 1189.58 1333.91 1191.42C1332.79 1193.25 1331.16 1194.64 1329.01 1195.6C1326.9 1196.55 1324.35 1197.03 1321.36 1197.03L1321.9 1196.2H1323.45C1325.05 1196.2 1326.42 1196.59 1327.57 1197.39C1328.77 1198.19 1329.84 1199.46 1330.8 1201.21L1338.09 1214.59H1331.28L1323.99 1201.15C1323.43 1200.12 1322.82 1199.32 1322.14 1198.76C1321.5 1198.17 1320.74 1197.77 1319.87 1197.57C1319.03 1197.33 1318.04 1197.21 1316.88 1197.21H1310.13V1214.59H1303.92ZM1310.13 1192.55H1320.35C1323.37 1192.55 1325.66 1191.91 1327.22 1190.64C1328.77 1189.37 1329.54 1187.47 1329.54 1184.97C1329.54 1182.5 1328.77 1180.63 1327.22 1179.35C1325.66 1178.08 1323.37 1177.44 1320.35 1177.44H1310.13V1192.55ZM1357.92 1214.59L1376.68 1172.48H1381.81L1400.63 1214.59H1394.3L1389.16 1202.65L1391.97 1204.32H1366.52L1369.27 1202.65L1364.19 1214.59H1357.92ZM1379.18 1179.35L1370.16 1200.73L1368.67 1199.3H1389.76L1388.38 1200.73L1379.3 1179.35H1379.18ZM1424.66 1214.59V1172.48H1429.38L1455 1206.29H1453.51V1172.48H1459.24V1214.59H1454.64L1429.02 1180.78H1430.39V1214.59H1424.66ZM1501.6 1215.13C1499.41 1215.13 1497.32 1214.95 1495.33 1214.59C1493.38 1214.19 1491.57 1213.64 1489.9 1212.92C1488.26 1212.16 1486.81 1211.27 1485.54 1210.23L1487.51 1205.33C1488.86 1206.33 1490.25 1207.17 1491.69 1207.84C1493.12 1208.52 1494.65 1209.04 1496.29 1209.4C1497.92 1209.71 1499.69 1209.87 1501.6 1209.87C1504.99 1209.87 1507.48 1209.28 1509.07 1208.08C1510.7 1206.85 1511.52 1205.25 1511.52 1203.3C1511.52 1202.23 1511.26 1201.31 1510.74 1200.56C1510.26 1199.8 1509.47 1199.16 1508.35 1198.64C1507.24 1198.09 1505.78 1197.63 1503.99 1197.27L1497.6 1195.96C1493.82 1195.16 1490.99 1193.85 1489.12 1192.01C1487.29 1190.18 1486.37 1187.71 1486.37 1184.61C1486.37 1182.06 1487.05 1179.83 1488.4 1177.92C1489.76 1176.01 1491.61 1174.53 1493.96 1173.5C1496.35 1172.46 1499.09 1171.94 1502.2 1171.94C1504.11 1171.94 1505.92 1172.14 1507.64 1172.54C1509.39 1172.9 1511 1173.46 1512.47 1174.21C1513.99 1174.97 1515.3 1175.89 1516.42 1176.96L1514.39 1181.68C1512.67 1180.17 1510.82 1179.05 1508.83 1178.34C1506.84 1177.58 1504.61 1177.2 1502.14 1177.2C1500.19 1177.2 1498.48 1177.5 1497 1178.1C1495.57 1178.69 1494.45 1179.53 1493.66 1180.61C1492.9 1181.68 1492.52 1182.95 1492.52 1184.43C1492.52 1186.1 1493.06 1187.43 1494.14 1188.43C1495.21 1189.43 1497 1190.18 1499.51 1190.7L1505.84 1192.01C1509.83 1192.85 1512.79 1194.14 1514.74 1195.9C1516.69 1197.65 1517.67 1199.98 1517.67 1202.88C1517.67 1205.31 1517.01 1207.46 1515.7 1209.34C1514.39 1211.17 1512.53 1212.6 1510.14 1213.64C1507.76 1214.63 1504.91 1215.13 1501.6 1215.13ZM1543.24 1214.59V1172.48H1570V1177.5H1549.45V1190.94H1568.74V1195.96H1549.45V1214.59H1543.24ZM1612.23 1215.13C1609.25 1215.13 1606.54 1214.63 1604.11 1213.64C1601.68 1212.64 1599.59 1211.19 1597.84 1209.28C1596.13 1207.36 1594.81 1205.1 1593.9 1202.47C1592.98 1199.8 1592.52 1196.81 1592.52 1193.51C1592.52 1190.2 1592.98 1187.24 1593.9 1184.61C1594.81 1181.94 1596.13 1179.67 1597.84 1177.8C1599.55 1175.89 1601.62 1174.43 1604.05 1173.44C1606.48 1172.44 1609.21 1171.94 1612.23 1171.94C1615.22 1171.94 1617.93 1172.44 1620.36 1173.44C1622.79 1174.43 1624.86 1175.87 1626.57 1177.74C1628.32 1179.61 1629.65 1181.88 1630.57 1184.55C1631.49 1187.18 1631.94 1190.14 1631.94 1193.45C1631.94 1196.75 1631.49 1199.74 1630.57 1202.41C1629.65 1205.08 1628.32 1207.36 1626.57 1209.28C1624.86 1211.19 1622.79 1212.64 1620.36 1213.64C1617.93 1214.63 1615.22 1215.13 1612.23 1215.13ZM1612.23 1209.75C1615.02 1209.75 1617.39 1209.12 1619.34 1207.84C1621.33 1206.57 1622.85 1204.72 1623.88 1202.29C1624.96 1199.86 1625.49 1196.93 1625.49 1193.51C1625.49 1190.08 1624.98 1187.16 1623.94 1184.73C1622.9 1182.3 1621.39 1180.47 1619.4 1179.23C1617.45 1177.96 1615.06 1177.32 1612.23 1177.32C1609.45 1177.32 1607.06 1177.96 1605.07 1179.23C1603.11 1180.47 1601.6 1182.3 1600.53 1184.73C1599.49 1187.16 1598.97 1190.08 1598.97 1193.51C1598.97 1196.89 1599.49 1199.82 1600.53 1202.29C1601.6 1204.72 1603.11 1206.57 1605.07 1207.84C1607.06 1209.12 1609.45 1209.75 1612.23 1209.75ZM1658.79 1214.59V1172.48H1676.23C1680.77 1172.48 1684.27 1173.56 1686.74 1175.71C1689.21 1177.86 1690.44 1180.9 1690.44 1184.85C1690.44 1187.39 1689.89 1189.58 1688.77 1191.42C1687.66 1193.25 1686.02 1194.64 1683.87 1195.6C1681.76 1196.55 1679.22 1197.03 1676.23 1197.03L1676.77 1196.2H1678.32C1679.91 1196.2 1681.29 1196.59 1682.44 1197.39C1683.64 1198.19 1684.71 1199.46 1685.67 1201.21L1692.95 1214.59H1686.14L1678.86 1201.15C1678.3 1200.12 1677.68 1199.32 1677.01 1198.76C1676.37 1198.17 1675.61 1197.77 1674.74 1197.57C1673.9 1197.33 1672.9 1197.21 1671.75 1197.21H1665V1214.59H1658.79ZM1665 1192.55H1675.21C1678.24 1192.55 1680.53 1191.91 1682.08 1190.64C1683.64 1189.37 1684.41 1187.47 1684.41 1184.97C1684.41 1182.5 1683.64 1180.63 1682.08 1179.35C1680.53 1178.08 1678.24 1177.44 1675.21 1177.44H1665V1192.55ZM1717.85 1214.59V1172.48H1723.04L1739.59 1203.3H1737.74L1754.16 1172.48H1759.24V1214.59H1753.69V1181.26H1755L1740.48 1208.14H1736.72L1722.03 1181.2H1723.46V1214.59H1717.85ZM1832.17 1214.59V1177.68H1817.24V1172.48H1853.26V1177.68H1838.33V1214.59H1832.17ZM1892.59 1215.13C1889.6 1215.13 1886.89 1214.63 1884.46 1213.64C1882.03 1212.64 1879.94 1211.19 1878.19 1209.28C1876.48 1207.36 1875.16 1205.1 1874.25 1202.47C1873.33 1199.8 1872.87 1196.81 1872.87 1193.51C1872.87 1190.2 1873.33 1187.24 1874.25 1184.61C1875.16 1181.94 1876.48 1179.67 1878.19 1177.8C1879.9 1175.89 1881.97 1174.43 1884.4 1173.44C1886.83 1172.44 1889.56 1171.94 1892.59 1171.94C1895.57 1171.94 1898.28 1172.44 1900.71 1173.44C1903.14 1174.43 1905.21 1175.87 1906.92 1177.74C1908.67 1179.61 1910.01 1181.88 1910.92 1184.55C1911.84 1187.18 1912.3 1190.14 1912.3 1193.45C1912.3 1196.75 1911.84 1199.74 1910.92 1202.41C1910.01 1205.08 1908.67 1207.36 1906.92 1209.28C1905.21 1211.19 1903.14 1212.64 1900.71 1213.64C1898.28 1214.63 1895.57 1215.13 1892.59 1215.13ZM1892.59 1209.75C1895.37 1209.75 1897.74 1209.12 1899.69 1207.84C1901.68 1206.57 1903.2 1204.72 1904.23 1202.29C1905.31 1199.86 1905.85 1196.93 1905.85 1193.51C1905.85 1190.08 1905.33 1187.16 1904.29 1184.73C1903.26 1182.3 1901.74 1180.47 1899.75 1179.23C1897.8 1177.96 1895.41 1177.32 1892.59 1177.32C1889.8 1177.32 1887.41 1177.96 1885.42 1179.23C1883.47 1180.47 1881.95 1182.3 1880.88 1184.73C1879.84 1187.16 1879.32 1190.08 1879.32 1193.51C1879.32 1196.89 1879.84 1199.82 1880.88 1202.29C1881.95 1204.72 1883.47 1206.57 1885.42 1207.84C1887.41 1209.12 1889.8 1209.75 1892.59 1209.75ZM1939.26 1214.59V1172.48H1944.46L1961 1203.3H1959.15L1975.58 1172.48H1980.65V1214.59H1975.1V1181.26H1976.41L1961.9 1208.14H1958.13L1943.44 1181.2H1944.87V1214.59H1939.26ZM2027.38 1215.13C2024.4 1215.13 2021.69 1214.63 2019.26 1213.64C2016.83 1212.64 2014.74 1211.19 2012.99 1209.28C2011.27 1207.36 2009.96 1205.1 2009.04 1202.47C2008.13 1199.8 2007.67 1196.81 2007.67 1193.51C2007.67 1190.2 2008.13 1187.24 2009.04 1184.61C2009.96 1181.94 2011.27 1179.67 2012.99 1177.8C2014.7 1175.89 2016.77 1174.43 2019.2 1173.44C2021.63 1172.44 2024.36 1171.94 2027.38 1171.94C2030.37 1171.94 2033.08 1172.44 2035.51 1173.44C2037.93 1174.43 2040.01 1175.87 2041.72 1177.74C2043.47 1179.61 2044.8 1181.88 2045.72 1184.55C2046.64 1187.18 2047.09 1190.14 2047.09 1193.45C2047.09 1196.75 2046.64 1199.74 2045.72 1202.41C2044.8 1205.08 2043.47 1207.36 2041.72 1209.28C2040.01 1211.19 2037.93 1212.64 2035.51 1213.64C2033.08 1214.63 2030.37 1215.13 2027.38 1215.13ZM2027.38 1209.75C2030.17 1209.75 2032.54 1209.12 2034.49 1207.84C2036.48 1206.57 2037.99 1204.72 2039.03 1202.29C2040.1 1199.86 2040.64 1196.93 2040.64 1193.51C2040.64 1190.08 2040.12 1187.16 2039.09 1184.73C2038.05 1182.3 2036.54 1180.47 2034.55 1179.23C2032.6 1177.96 2030.21 1177.32 2027.38 1177.32C2024.59 1177.32 2022.21 1177.96 2020.21 1179.23C2018.26 1180.47 2016.75 1182.3 2015.67 1184.73C2014.64 1187.16 2014.12 1190.08 2014.12 1193.51C2014.12 1196.89 2014.64 1199.82 2015.67 1202.29C2016.75 1204.72 2018.26 1206.57 2020.21 1207.84C2022.21 1209.12 2024.59 1209.75 2027.38 1209.75ZM2073.94 1214.59V1172.48H2091.38C2095.92 1172.48 2099.42 1173.56 2101.89 1175.71C2104.36 1177.86 2105.59 1180.9 2105.59 1184.85C2105.59 1187.39 2105.04 1189.58 2103.92 1191.42C2102.81 1193.25 2101.17 1194.64 2099.02 1195.6C2096.91 1196.55 2094.36 1197.03 2091.38 1197.03L2091.91 1196.2H2093.47C2095.06 1196.2 2096.43 1196.59 2097.59 1197.39C2098.78 1198.19 2099.86 1199.46 2100.81 1201.21L2108.1 1214.59H2101.29L2094.01 1201.15C2093.45 1200.12 2092.83 1199.32 2092.15 1198.76C2091.52 1198.17 2090.76 1197.77 2089.88 1197.57C2089.05 1197.33 2088.05 1197.21 2086.9 1197.21H2080.15V1214.59H2073.94ZM2080.15 1192.55H2090.36C2093.39 1192.55 2095.68 1191.91 2097.23 1190.64C2098.78 1189.37 2099.56 1187.47 2099.56 1184.97C2099.56 1182.5 2098.78 1180.63 2097.23 1179.35C2095.68 1178.08 2093.39 1177.44 2090.36 1177.44H2080.15V1192.55ZM2132.88 1214.59V1172.48H2150.32C2154.86 1172.48 2158.36 1173.56 2160.83 1175.71C2163.3 1177.86 2164.53 1180.9 2164.53 1184.85C2164.53 1187.39 2163.98 1189.58 2162.86 1191.42C2161.75 1193.25 2160.11 1194.64 2157.96 1195.6C2155.85 1196.55 2153.3 1197.03 2150.32 1197.03L2150.86 1196.2H2152.41C2154 1196.2 2155.37 1196.59 2156.53 1197.39C2157.72 1198.19 2158.8 1199.46 2159.76 1201.21L2167.04 1214.59H2160.23L2152.95 1201.15C2152.39 1200.12 2151.77 1199.32 2151.09 1198.76C2150.46 1198.17 2149.7 1197.77 2148.82 1197.57C2147.99 1197.33 2146.99 1197.21 2145.84 1197.21H2139.09V1214.59H2132.88ZM2139.09 1192.55H2149.3C2152.33 1192.55 2154.62 1191.91 2156.17 1190.64C2157.72 1189.37 2158.5 1187.47 2158.5 1184.97C2158.5 1182.5 2157.72 1180.63 2156.17 1179.35C2154.62 1178.08 2152.33 1177.44 2149.3 1177.44H2139.09V1192.55ZM2209.8 1215.13C2206.82 1215.13 2204.11 1214.63 2201.68 1213.64C2199.25 1212.64 2197.16 1211.19 2195.41 1209.28C2193.69 1207.36 2192.38 1205.1 2191.46 1202.47C2190.55 1199.8 2190.09 1196.81 2190.09 1193.51C2190.09 1190.2 2190.55 1187.24 2191.46 1184.61C2192.38 1181.94 2193.69 1179.67 2195.41 1177.8C2197.12 1175.89 2199.19 1174.43 2201.62 1173.44C2204.05 1172.44 2206.78 1171.94 2209.8 1171.94C2212.79 1171.94 2215.5 1172.44 2217.93 1173.44C2220.35 1174.43 2222.43 1175.87 2224.14 1177.74C2225.89 1179.61 2227.22 1181.88 2228.14 1184.55C2229.06 1187.18 2229.51 1190.14 2229.51 1193.45C2229.51 1196.75 2229.06 1199.74 2228.14 1202.41C2227.22 1205.08 2225.89 1207.36 2224.14 1209.28C2222.43 1211.19 2220.35 1212.64 2217.93 1213.64C2215.5 1214.63 2212.79 1215.13 2209.8 1215.13ZM2209.8 1209.75C2212.59 1209.75 2214.96 1209.12 2216.91 1207.84C2218.9 1206.57 2220.41 1204.72 2221.45 1202.29C2222.53 1199.86 2223.06 1196.93 2223.06 1193.51C2223.06 1190.08 2222.55 1187.16 2221.51 1184.73C2220.47 1182.3 2218.96 1180.47 2216.97 1179.23C2215.02 1177.96 2212.63 1177.32 2209.8 1177.32C2207.01 1177.32 2204.63 1177.96 2202.63 1179.23C2200.68 1180.47 2199.17 1182.3 2198.1 1184.73C2197.06 1187.16 2196.54 1190.08 2196.54 1193.51C2196.54 1196.89 2197.06 1199.82 2198.1 1202.29C2199.17 1204.72 2200.68 1206.57 2202.63 1207.84C2204.63 1209.12 2207.01 1209.75 2209.8 1209.75ZM2266.83 1214.59L2252.08 1172.48H2258.41L2270.78 1208.86H2268.57L2281.29 1172.48H2286.01L2298.49 1208.86H2296.52L2309 1172.48H2315.04L2300.16 1214.59H2294.97L2282.9 1180.01H2284.22L2272.03 1214.59H2266.83ZM2335.45 1214.59V1207.48H2342.56V1214.59H2335.45Z" fill="#F0AB1F"/>
<rect x="2389" y="1190" width="265" height="5" fill="#F0AB1F"/>
<rect x="102" y="1191" width="265" height="5" fill="#F0AB1F"/>
</svg>
