<svg width="25" height="24" viewBox="0 0 25 24" fill="none" xmlns="http://www.w3.org/2000/svg">
<path d="M1.46875 22.2812C0.489583 21.3021 0 20.125 0 18.75C0 17.375 0.489583 16.1979 1.46875 15.2188C2.44792 14.2396 3.625 13.75 5 13.75C6.375 13.75 7.55208 14.2396 8.53125 15.2188C9.51042 16.1979 10 17.375 10 18.75C10 20.125 9.51042 21.3021 8.53125 22.2812C7.55208 23.2604 6.375 23.75 5 23.75C3.625 23.75 2.44792 23.2604 1.46875 22.2812ZM16.4688 22.2812C15.4896 21.3021 15 20.125 15 18.75C15 17.375 15.4896 16.1979 16.4688 15.2188C17.4479 14.2396 18.625 13.75 20 13.75C21.375 13.75 22.5521 14.2396 23.5312 15.2188C24.5104 16.1979 25 17.375 25 18.75C25 20.125 24.5104 21.3021 23.5312 22.2812C22.5521 23.2604 21.375 23.75 20 23.75C18.625 23.75 17.4479 23.2604 16.4688 22.2812ZM5 21.25C5.6875 21.25 6.27604 21.0052 6.76562 20.5156C7.25521 20.026 7.5 19.4375 7.5 18.75C7.5 18.0625 7.25521 17.474 6.76562 16.9844C6.27604 16.4948 5.6875 16.25 5 16.25C4.3125 16.25 3.72396 16.4948 3.23438 16.9844C2.74479 17.474 2.5 18.0625 2.5 18.75C2.5 19.4375 2.74479 20.026 3.23438 20.5156C3.72396 21.0052 4.3125 21.25 5 21.25ZM20 21.25C20.6875 21.25 21.276 21.0052 21.7656 20.5156C22.2552 20.026 22.5 19.4375 22.5 18.75C22.5 18.0625 22.2552 17.474 21.7656 16.9844C21.276 16.4948 20.6875 16.25 20 16.25C19.3125 16.25 18.724 16.4948 18.2344 16.9844C17.7448 17.474 17.5 18.0625 17.5 18.75C17.5 19.4375 17.7448 20.026 18.2344 20.5156C18.724 21.0052 19.3125 21.25 20 21.25ZM10.8125 15.4375C10.3542 14.9792 10.125 14.4167 10.125 13.75C10.125 13.0833 10.3542 12.5208 10.8125 12.0625C11.2708 11.6042 11.8333 11.375 12.5 11.375C13.1667 11.375 13.7292 11.6042 14.1875 12.0625C14.6458 12.5208 14.875 13.0833 14.875 13.75C14.875 14.4167 14.6458 14.9792 14.1875 15.4375C13.7292 15.8958 13.1667 16.125 12.5 16.125C11.8333 16.125 11.2708 15.8958 10.8125 15.4375ZM8.96875 8.53125C7.98958 7.55208 7.5 6.375 7.5 5C7.5 3.625 7.98958 2.44792 8.96875 1.46875C9.94792 0.489583 11.125 0 12.5 0C13.875 0 15.0521 0.489583 16.0312 1.46875C17.0104 2.44792 17.5 3.625 17.5 5C17.5 6.375 17.0104 7.55208 16.0312 8.53125C15.0521 9.51042 13.875 10 12.5 10C11.125 10 9.94792 9.51042 8.96875 8.53125ZM14.2656 6.76562C14.7552 6.27604 15 5.6875 15 5C15 4.3125 14.7552 3.72396 14.2656 3.23438C13.776 2.74479 13.1875 2.5 12.5 2.5C11.8125 2.5 11.224 2.74479 10.7344 3.23438C10.2448 3.72396 10 4.3125 10 5C10 5.6875 10.2448 6.27604 10.7344 6.76562C11.224 7.25521 11.8125 7.5 12.5 7.5C13.1875 7.5 13.776 7.25521 14.2656 6.76562Z" fill="#13181D"/>
</svg>
