<svg width="25" height="25" viewBox="0 0 25 25" fill="none" xmlns="http://www.w3.org/2000/svg">
<path d="M3.75 18.4375V12.1875C3.75 11.8333 3.86979 11.5365 4.10938 11.2969C4.34896 11.0573 4.64583 10.9375 5 10.9375C5.35417 10.9375 5.65104 11.0573 5.89062 11.2969C6.13021 11.5365 6.25 11.8333 6.25 12.1875V18.4375C6.25 18.7917 6.13021 19.0885 5.89062 19.3281C5.65104 19.5677 5.35417 19.6875 5 19.6875C4.64583 19.6875 4.34896 19.5677 4.10938 19.3281C3.86979 19.0885 3.75 18.7917 3.75 18.4375ZM11.25 18.4375V12.1875C11.25 11.8333 11.3698 11.5365 11.6094 11.2969C11.849 11.0573 12.1458 10.9375 12.5 10.9375C12.8542 10.9375 13.151 11.0573 13.3906 11.2969C13.6302 11.5365 13.75 11.8333 13.75 12.1875V18.4375C13.75 18.7917 13.6302 19.0885 13.3906 19.3281C13.151 19.5677 12.8542 19.6875 12.5 19.6875C12.1458 19.6875 11.849 19.5677 11.6094 19.3281C11.3698 19.0885 11.25 18.7917 11.25 18.4375ZM1.25 24.6875C0.895833 24.6875 0.598958 24.5677 0.359375 24.3281C0.119792 24.0885 0 23.7917 0 23.4375C0 23.0833 0.119792 22.7865 0.359375 22.5469C0.598958 22.3073 0.895833 22.1875 1.25 22.1875H23.75C24.1042 22.1875 24.401 22.3073 24.6406 22.5469C24.8802 22.7865 25 23.0833 25 23.4375C25 23.7917 24.8802 24.0885 24.6406 24.3281C24.401 24.5677 24.1042 24.6875 23.75 24.6875H1.25ZM18.75 18.4375V12.1875C18.75 11.8333 18.8698 11.5365 19.1094 11.2969C19.349 11.0573 19.6458 10.9375 20 10.9375C20.3542 10.9375 20.651 11.0573 20.8906 11.2969C21.1302 11.5365 21.25 11.8333 21.25 12.1875V18.4375C21.25 18.7917 21.1302 19.0885 20.8906 19.3281C20.651 19.5677 20.3542 19.6875 20 19.6875C19.6458 19.6875 19.349 19.5677 19.1094 19.3281C18.8698 19.0885 18.75 18.7917 18.75 18.4375ZM23.75 8.4375H1.125C0.8125 8.4375 0.546875 8.32812 0.328125 8.10938C0.109375 7.89062 0 7.625 0 7.3125V6.625C0 6.39583 0.0572917 6.19792 0.171875 6.03125C0.286458 5.86458 0.4375 5.72917 0.625 5.625L11.375 0.25C11.7292 0.0833333 12.1042 0 12.5 0C12.8958 0 13.2708 0.0833333 13.625 0.25L24.3125 5.59375C24.5417 5.69792 24.7135 5.85417 24.8281 6.0625C24.9427 6.27083 25 6.48958 25 6.71875V7.1875C25 7.54167 24.8802 7.83854 24.6406 8.07812C24.401 8.31771 24.1042 8.4375 23.75 8.4375ZM5.5625 5.9375H19.4375L12.5 2.5L5.5625 5.9375Z" fill="#13181D"/>
</svg>
