<svg width="27" height="27" viewBox="0 0 27 27" fill="none" xmlns="http://www.w3.org/2000/svg">
<path d="M12.5 10.75V6.25C12.5 5.89583 12.3802 5.59896 12.1406 5.35938C11.901 5.11979 11.6042 5 11.25 5C10.8958 5 10.599 5.11979 10.3594 5.35938C10.1198 5.59896 10 5.89583 10 6.25V11.25C10 11.4167 10.0312 11.5729 10.0938 11.7188C10.1562 11.8646 10.25 12 10.375 12.125L12.875 14.625C13.125 14.875 13.4167 15 13.75 15C14.0833 15 14.375 14.875 14.625 14.625C14.875 14.375 15 14.0833 15 13.75C15 13.4167 14.875 13.125 14.625 12.875L12.5 10.75ZM9 19.7188C9.33333 18.7188 9.92188 17.8906 10.7656 17.2344C11.6094 16.5781 12.5833 16.25 13.6875 16.25H18.4375C18.9375 15.5417 19.3229 14.7656 19.5938 13.9219C19.8646 13.0781 20 12.1875 20 11.25C20 8.8125 19.151 6.74479 17.4531 5.04688C15.7552 3.34896 13.6875 2.5 11.25 2.5C8.8125 2.5 6.74479 3.34896 5.04688 5.04688C3.34896 6.74479 2.5 8.8125 2.5 11.25C2.5 13.2917 3.10938 15.0885 4.32812 16.6406C5.54688 18.1927 7.10417 19.2188 9 19.7188ZM13.75 26.25C12.5417 26.25 11.4792 25.8698 10.5625 25.1094C9.64583 24.349 9.07292 23.3958 8.84375 22.25C6.30208 21.7083 4.19271 20.4167 2.51562 18.375C0.838542 16.3333 0 13.9583 0 11.25C0 8.125 1.09375 5.46875 3.28125 3.28125C5.46875 1.09375 8.125 0 11.25 0C14.375 0 17.0312 1.09375 19.2188 3.28125C21.4062 5.46875 22.5 8.125 22.5 11.25C22.5 12.1458 22.401 13.0156 22.2031 13.8594C22.0052 14.7031 21.7188 15.5 21.3438 16.25C22.7188 16.25 23.8802 16.7396 24.8281 17.7188C25.776 18.6979 26.25 19.875 26.25 21.25C26.25 22.625 25.7604 23.8021 24.7812 24.7812C23.8021 25.7604 22.625 26.25 21.25 26.25H13.75ZM13.75 23.75H21.25C21.9375 23.75 22.526 23.5052 23.0156 23.0156C23.5052 22.526 23.75 21.9375 23.75 21.25C23.75 20.5625 23.5052 19.974 23.0156 19.4844C22.526 18.9948 21.9375 18.75 21.25 18.75H13.75C13.0625 18.75 12.474 18.9948 11.9844 19.4844C11.4948 19.974 11.25 20.5625 11.25 21.25C11.25 21.9375 11.4948 22.526 11.9844 23.0156C12.474 23.5052 13.0625 23.75 13.75 23.75ZM12.8594 22.1406C12.6198 21.901 12.5 21.6042 12.5 21.25C12.5 20.8958 12.6198 20.599 12.8594 20.3594C13.099 20.1198 13.3958 20 13.75 20C14.1042 20 14.401 20.1198 14.6406 20.3594C14.8802 20.599 15 20.8958 15 21.25C15 21.6042 14.8802 21.901 14.6406 22.1406C14.401 22.3802 14.1042 22.5 13.75 22.5C13.3958 22.5 13.099 22.3802 12.8594 22.1406ZM16.6094 22.1406C16.3698 21.901 16.25 21.6042 16.25 21.25C16.25 20.8958 16.3698 20.599 16.6094 20.3594C16.849 20.1198 17.1458 20 17.5 20C17.8542 20 18.151 20.1198 18.3906 20.3594C18.6302 20.599 18.75 20.8958 18.75 21.25C18.75 21.6042 18.6302 21.901 18.3906 22.1406C18.151 22.3802 17.8542 22.5 17.5 22.5C17.1458 22.5 16.849 22.3802 16.6094 22.1406ZM20.3594 22.1406C20.1198 21.901 20 21.6042 20 21.25C20 20.8958 20.1198 20.599 20.3594 20.3594C20.599 20.1198 20.8958 20 21.25 20C21.6042 20 21.901 20.1198 22.1406 20.3594C22.3802 20.599 22.5 20.8958 22.5 21.25C22.5 21.6042 22.3802 21.901 22.1406 22.1406C21.901 22.3802 21.6042 22.5 21.25 22.5C20.8958 22.5 20.599 22.3802 20.3594 22.1406Z" fill="#13181D"/>
</svg>
