<svg width="23" height="21" viewBox="0 0 23 21" fill="none" xmlns="http://www.w3.org/2000/svg">
<path d="M13.3125 0.560185L17.5 3.90394H20C20.6875 3.90394 21.276 4.14873 21.7656 4.63831C22.2552 5.12789 22.5 5.71643 22.5 6.40393V20.1539H0V6.40393C0 5.8831 0.229167 5.5081 0.6875 5.27893C1.14583 5.04977 1.58333 5.09143 2 5.40393L5 7.65393L9.71875 1.06019C10.1354 0.476852 10.6979 0.133102 11.4062 0.0289352C12.1146 -0.0752315 12.75 0.101852 13.3125 0.560185ZM2.5 8.90394V13.4039L6.25 16.4039L11.25 9.52894L20 16.3414V6.40393H16.625L11.75 2.49769L5.5625 11.1852L2.5 8.90394Z" fill="#13181D"/>
</svg>
