<svg width="31" height="35" viewBox="0 0 31 35" fill="none" xmlns="http://www.w3.org/2000/svg">
<path d="M15.8242 0.0289064C17.717 1.09838e-07 19.5959 0.0150313 21.4736 0C21.5361 2.34834 22.4888 4.46197 24.0047 6.02753L24.0024 6.02522C25.6338 7.49481 27.7567 8.44756 30.0969 8.60944L30.1293 8.61175V14.4346C27.9186 14.3791 25.8396 13.8692 23.9654 12.9928L24.0602 13.0321C23.1537 12.5962 22.3871 12.1487 21.6586 11.6492L21.7188 11.6885C21.7049 15.9077 21.7326 20.1268 21.6899 24.331C21.5708 26.4735 20.8585 28.4276 19.7161 30.059L19.7393 30.0232C17.8291 32.7589 14.735 34.5545 11.2165 34.6609H11.2004C11.0581 34.6678 10.8905 34.6713 10.7217 34.6713C8.72135 34.6713 6.8517 34.114 5.25838 33.1462L5.30463 33.1728C2.40476 31.428 0.404447 28.4426 0.0344467 24.9704L0.0298218 24.923C0.000915522 24.2003 -0.0129596 23.4777 0.0159467 22.77C0.582509 17.2443 5.21213 12.9697 10.8396 12.9697C11.4721 12.9697 12.0918 13.024 12.6942 13.1269L12.6295 13.1177C12.6584 15.2556 12.5717 17.3946 12.5717 19.5325C12.0826 19.3556 11.5183 19.2527 10.9298 19.2527C8.76992 19.2527 6.93263 20.6333 6.25276 22.5608L6.24235 22.5954C6.08857 23.0892 5.99954 23.6569 5.99954 24.2443C5.99954 24.4824 6.01457 24.7183 6.04232 24.9496L6.04001 24.9218C6.42388 27.2875 8.45195 29.0728 10.8974 29.0728C10.9679 29.0728 11.0373 29.0716 11.1067 29.0681H11.0963C12.7879 29.0173 14.2563 28.1073 15.0865 26.7626L15.0981 26.7418C15.4068 26.3116 15.6184 25.7913 15.6889 25.2259L15.6901 25.2097C15.8346 22.6232 15.7768 20.0517 15.7907 17.4652C15.8045 11.6423 15.7768 5.83328 15.8196 0.0254376L15.8242 0.0289064Z" fill="#53585C"/>
</svg>
