<svg width="197" height="77" viewBox="0 0 197 77" fill="none" xmlns="http://www.w3.org/2000/svg">
<mask id="mask0_374_19528" style="mask-type:luminance" maskUnits="userSpaceOnUse" x="0" y="0" width="54" height="50">
<path d="M53.3122 0H0V49.121H53.3122V0Z" fill="white"/>
</mask>
<g mask="url(#mask0_374_19528)">
<path d="M53.3124 14.0822L35.877 30.4883L53.3124 49.1208V14.0822Z" fill="#F0AB1F"/>
<path d="M39.4226 49.121L5.02946 12.3222V49.121H0V0L46.6063 49.121H39.4226Z" fill="#0D1B2A"/>
<path d="M48.1157 12.2383L25.2904 32.8591L21.6172 29.1859L53.3128 0V7.37654L48.1157 12.2383Z" fill="#00A9B7"/>
<path d="M34.394 43.9075L17.8672 26.0579L21.3878 22.5373L46.6072 49.1213H39.2726L34.3957 43.9075H34.394Z" fill="#00A9B7"/>
</g>
<path d="M77.5705 0H72.541V49.121H77.5705V0Z" fill="#0D1B2A"/>
<path d="M136.221 49.121L101.828 12.3222V49.121H96.7988V0L136.196 41.5768L136.221 49.121Z" fill="#0D1B2A"/>
<path d="M141.183 0H136.153V49.121H141.183V0Z" fill="#0D1B2A"/>
<path d="M173.087 0H160.438V5.01772H173.087C183.024 5.01772 191.108 13.3096 191.108 23.501V25.6201C191.108 35.8114 183.024 44.1033 173.087 44.1033H160.458V49.121H173.087C185.721 49.121 196 38.5776 196 25.6201V23.501C195.996 10.5434 185.719 0 173.087 0Z" fill="#0D1B2A"/>
<path d="M0.633056 64V59.6245H1.6385L2.95426 62.3243H2.98529L4.30106 59.6245H5.29409V64H4.45622V60.903H4.42519L3.27079 63.2738H2.65635L1.49575 60.903H1.47092V64H0.633056ZM6.82135 64V59.6245H7.68405V64H6.82135ZM9.19759 64V59.6245H9.96098L12.2636 62.7029H12.2946V59.6245H13.1325V64H12.3132L10.0665 60.9713H10.0355V64H9.19759ZM14.6467 64V59.6245H15.5094V64H14.6467ZM18.618 64.0621C18.3739 64.0621 18.1381 64.0455 17.9105 64.0124C17.6829 63.9834 17.474 63.9379 17.2836 63.8759C17.0933 63.8097 16.9278 63.729 16.7871 63.6338L17.0726 62.9325C17.2133 63.0277 17.3664 63.1042 17.5319 63.1621C17.6974 63.2159 17.8712 63.2552 18.0532 63.2801C18.2394 63.3007 18.4277 63.3111 18.618 63.3111C18.9118 63.3111 19.1373 63.2635 19.2945 63.1683C19.4518 63.069 19.5304 62.9242 19.5304 62.7339C19.5304 62.6263 19.5056 62.5436 19.4559 62.4856C19.4062 62.4236 19.3276 62.376 19.2201 62.3429C19.1125 62.3056 18.9739 62.2725 18.8042 62.2436L18.0719 62.1132C17.6498 62.0388 17.3457 61.894 17.1595 61.6788C16.9733 61.4595 16.8802 61.1885 16.8802 60.8658C16.8802 60.6009 16.9588 60.3713 17.1161 60.1768C17.2733 59.9824 17.4905 59.8313 17.7678 59.7238C18.045 59.6162 18.3615 59.5624 18.7173 59.5624C18.9284 59.5624 19.129 59.581 19.3194 59.6183C19.5097 59.6514 19.6855 59.701 19.8469 59.7672C20.0083 59.8334 20.149 59.9162 20.2689 60.0155L19.9897 60.7168C19.8159 60.5678 19.6214 60.4644 19.4062 60.4065C19.1911 60.3444 18.9594 60.3134 18.7111 60.3134C18.5249 60.3134 18.3574 60.3341 18.2084 60.3754C18.0636 60.4168 17.9498 60.4789 17.8671 60.5616C17.7843 60.6403 17.7429 60.7437 17.7429 60.872C17.7429 61.0126 17.7905 61.1202 17.8857 61.1947C17.9808 61.2692 18.1546 61.3292 18.407 61.3747L19.1332 61.505C19.5593 61.5754 19.8738 61.7119 20.0765 61.9146C20.2834 62.1132 20.3869 62.3718 20.3869 62.6904C20.3869 62.9594 20.3145 63.1973 20.1696 63.4042C20.0248 63.6111 19.82 63.7724 19.5552 63.8883C19.2904 64.0041 18.978 64.0621 18.618 64.0621ZM22.5878 64V60.3692H21.0982V59.6245H24.94V60.3692H23.4505V64H22.5878ZM26.0181 64V59.6245H28.0042C28.5048 59.6245 28.8896 59.7362 29.1586 59.9596C29.4275 60.183 29.562 60.5058 29.562 60.9278C29.562 61.1471 29.5186 61.3374 29.4317 61.4988C29.3489 61.656 29.2351 61.7864 29.0903 61.8898C28.9455 61.9891 28.7841 62.0615 28.6062 62.107L28.6124 62.1381L28.6497 62.1567C28.7241 62.1857 28.7945 62.2332 28.8607 62.2994C28.9269 62.3615 28.9972 62.4587 29.0717 62.5911L29.8103 64H28.8731L28.178 62.6904C28.1283 62.5953 28.0725 62.5229 28.0104 62.4732C27.9525 62.4194 27.8842 62.3822 27.8056 62.3615C27.727 62.3408 27.6318 62.3305 27.5201 62.3305H26.8808V64H26.0181ZM26.8808 61.6353H27.9297C28.1987 61.6353 28.3952 61.5816 28.5193 61.474C28.6476 61.3623 28.7117 61.1968 28.7117 60.9775C28.7117 60.7582 28.6476 60.5968 28.5193 60.4934C28.3911 60.3899 28.1862 60.3382 27.9049 60.3382H26.8808V61.6353ZM31.9086 64V61.7222L32.0638 62.3367L30.2639 59.6245H31.2135L32.3369 61.3499H32.3679L33.4851 59.6245H34.4222L32.6224 62.3367L32.7713 61.7222V64H31.9086ZM39.4424 64.0621C39.1155 64.0621 38.8197 64.0103 38.5549 63.9069C38.2901 63.8035 38.0625 63.6545 37.8722 63.46C37.6818 63.2614 37.535 63.0235 37.4315 62.7463C37.3322 62.4691 37.2826 62.1567 37.2826 61.8091C37.2826 61.4616 37.3322 61.1512 37.4315 60.8782C37.535 60.6009 37.6818 60.3651 37.8722 60.1706C38.0625 59.972 38.2901 59.821 38.5549 59.7176C38.8197 59.6141 39.1155 59.5624 39.4424 59.5624C39.7693 59.5624 40.0651 59.6141 40.3299 59.7176C40.5947 59.821 40.8202 59.97 41.0064 60.1644C41.1968 60.3589 41.3416 60.5947 41.4409 60.872C41.5443 61.1492 41.596 61.4595 41.596 61.8029C41.596 62.1505 41.5443 62.4629 41.4409 62.7401C41.3416 63.0173 41.1968 63.2552 41.0064 63.4538C40.8202 63.6524 40.5947 63.8035 40.3299 63.9069C40.0651 64.0103 39.7693 64.0621 39.4424 64.0621ZM39.4424 63.3111C39.7113 63.3111 39.9389 63.2532 40.1251 63.1373C40.3154 63.0215 40.4603 62.8518 40.5596 62.6284C40.663 62.4049 40.7147 62.1319 40.7147 61.8091C40.7147 61.4823 40.6651 61.2092 40.5658 60.9899C40.4665 60.7664 40.3216 60.5989 40.1313 60.4872C39.941 60.3713 39.7113 60.3134 39.4424 60.3134C39.1735 60.3134 38.9438 60.3713 38.7535 60.4872C38.5632 60.5989 38.4163 60.7664 38.3128 60.9899C38.2135 61.2092 38.1639 61.4823 38.1639 61.8091C38.1639 62.1319 38.2135 62.4049 38.3128 62.6284C38.4163 62.8518 38.5632 63.0215 38.7535 63.1373C38.9438 63.2532 39.1735 63.3111 39.4424 63.3111ZM42.9478 64V59.6245H45.9889V60.3506H43.8105V61.4802H45.8648V62.2125H43.8105V64H42.9478ZM49.3428 64V59.6245H50.2055V64H49.3428ZM51.719 64V59.6245H52.4824L54.785 62.7029H54.816V59.6245H55.6539V64H54.8346L52.5879 60.9713H52.5569V64H51.719ZM57.1682 64V59.6245H57.9316L60.2341 62.7029H60.2652V59.6245H61.103V64H60.2838L58.0371 60.9713H58.006V64H57.1682ZM64.6096 64.0621C64.2827 64.0621 63.9869 64.0103 63.7221 63.9069C63.4572 63.8035 63.2297 63.6545 63.0394 63.46C62.849 63.2614 62.7021 63.0235 62.5987 62.7463C62.4994 62.4691 62.4497 62.1567 62.4497 61.8091C62.4497 61.4616 62.4994 61.1512 62.5987 60.8782C62.7021 60.6009 62.849 60.3651 63.0394 60.1706C63.2297 59.972 63.4572 59.821 63.7221 59.7176C63.9869 59.6141 64.2827 59.5624 64.6096 59.5624C64.9364 59.5624 65.2323 59.6141 65.4971 59.7176C65.7619 59.821 65.9874 59.97 66.1736 60.1644C66.3639 60.3589 66.5087 60.5947 66.608 60.872C66.7115 61.1492 66.7632 61.4595 66.7632 61.8029C66.7632 62.1505 66.7115 62.4629 66.608 62.7401C66.5087 63.0173 66.3639 63.2552 66.1736 63.4538C65.9874 63.6524 65.7619 63.8035 65.4971 63.9069C65.2323 64.0103 64.9364 64.0621 64.6096 64.0621ZM64.6096 63.3111C64.8785 63.3111 65.1061 63.2532 65.2923 63.1373C65.4826 63.0215 65.6274 62.8518 65.7267 62.6284C65.8302 62.4049 65.8819 62.1319 65.8819 61.8091C65.8819 61.4823 65.8322 61.2092 65.7329 60.9899C65.6336 60.7664 65.4888 60.5989 65.2985 60.4872C65.1082 60.3713 64.8785 60.3134 64.6096 60.3134C64.3406 60.3134 64.111 60.3713 63.9207 60.4872C63.7303 60.5989 63.5834 60.7664 63.48 60.9899C63.3807 61.2092 63.3311 61.4823 63.3311 61.8091C63.3311 62.1319 63.3807 62.4049 63.48 62.6284C63.5834 62.8518 63.7303 63.0215 63.9207 63.1373C64.111 63.2532 64.3406 63.3111 64.6096 63.3111ZM69.2596 64L67.3542 59.6245H68.2789L69.6195 62.9015H69.6443L70.9787 59.6245H71.9097L69.9981 64H69.2596ZM71.9101 64L73.8775 59.6245H74.6471L76.6146 64H75.7146L75.1933 62.7773L75.5657 63.0877H72.9466L73.3127 62.7773L72.7914 64H71.9101ZM74.2375 60.5182L73.3748 62.5601L73.2196 62.3801H75.2926L75.1312 62.5601L74.2747 60.5182H74.2375ZM78.2076 64V60.3692H76.7181V59.6245H80.5599V60.3692H79.0703V64H78.2076ZM81.638 64V59.6245H82.5007V64H81.638ZM86.0065 64.0621C85.6796 64.0621 85.3838 64.0103 85.119 63.9069C84.8542 63.8035 84.6266 63.6545 84.4363 63.46C84.2459 63.2614 84.099 63.0235 83.9956 62.7463C83.8963 62.4691 83.8467 62.1567 83.8467 61.8091C83.8467 61.4616 83.8963 61.1512 83.9956 60.8782C84.099 60.6009 84.2459 60.3651 84.4363 60.1706C84.6266 59.972 84.8542 59.821 85.119 59.7176C85.3838 59.6141 85.6796 59.5624 86.0065 59.5624C86.3334 59.5624 86.6292 59.6141 86.894 59.7176C87.1588 59.821 87.3843 59.97 87.5705 60.1644C87.7608 60.3589 87.9057 60.5947 88.005 60.872C88.1084 61.1492 88.1601 61.4595 88.1601 61.8029C88.1601 62.1505 88.1084 62.4629 88.005 62.7401C87.9057 63.0173 87.7608 63.2552 87.5705 63.4538C87.3843 63.6524 87.1588 63.8035 86.894 63.9069C86.6292 64.0103 86.3334 64.0621 86.0065 64.0621ZM86.0065 63.3111C86.2754 63.3111 86.503 63.2532 86.6892 63.1373C86.8795 63.0215 87.0243 62.8518 87.1237 62.6284C87.2271 62.4049 87.2788 62.1319 87.2788 61.8091C87.2788 61.4823 87.2292 61.2092 87.1299 60.9899C87.0306 60.7664 86.8857 60.5989 86.6954 60.4872C86.5051 60.3713 86.2754 60.3134 86.0065 60.3134C85.7375 60.3134 85.5079 60.3713 85.3176 60.4872C85.1272 60.5989 84.9804 60.7664 84.8769 60.9899C84.7776 61.2092 84.728 61.4823 84.728 61.8091C84.728 62.1319 84.7776 62.4049 84.8769 62.6284C84.9804 62.8518 85.1272 63.0215 85.3176 63.1373C85.5079 63.2532 85.7375 63.3111 86.0065 63.3111ZM89.5119 64V59.6245H90.2753L92.5778 62.7029H92.6089V59.6245H93.4467V64H92.6275L90.3808 60.9713H90.3497V64H89.5119ZM98.3912 64.0621C98.0726 64.0621 97.7975 64.0166 97.5658 63.9255C97.3341 63.8345 97.1561 63.7062 97.032 63.5407C96.912 63.3711 96.852 63.1663 96.852 62.9263C96.852 62.7277 96.8893 62.556 96.9637 62.4112C97.0382 62.2622 97.1375 62.1298 97.2617 62.0139C97.3899 61.894 97.5306 61.7843 97.6837 61.685L97.9506 61.5174L97.8823 61.6602C97.6796 61.4657 97.5306 61.2919 97.4354 61.1388C97.3403 60.9857 97.2927 60.8099 97.2927 60.6113C97.2927 60.4085 97.3485 60.2286 97.4603 60.0713C97.5761 59.9141 97.7333 59.79 97.9319 59.6989C98.1306 59.6079 98.3581 59.5624 98.6147 59.5624C98.8671 59.5624 99.0822 59.6017 99.2601 59.6803C99.4422 59.7589 99.5808 59.8686 99.676 60.0093C99.7711 60.1458 99.8187 60.3092 99.8187 60.4996C99.8187 60.6609 99.7753 60.8099 99.6884 60.9464C99.6015 61.083 99.4836 61.2112 99.3346 61.3312C99.1898 61.4512 99.0181 61.5691 98.8195 61.685L98.745 61.5733L99.8063 62.647L99.738 62.678C99.8208 62.5415 99.8932 62.3615 99.9552 62.1381C100.021 61.9146 100.061 61.6829 100.073 61.443H100.793C100.781 61.7822 100.721 62.0946 100.613 62.3801C100.506 62.6615 100.369 62.9035 100.204 63.1063L100.117 62.9387L101.203 64H100.241L99.7194 63.4787H99.8622C99.6842 63.669 99.4691 63.8138 99.2167 63.9131C98.9684 64.0124 98.6933 64.0621 98.3912 64.0621ZM98.4595 63.4414C98.6622 63.4414 98.8484 63.4083 99.0181 63.3421C99.1919 63.2718 99.3346 63.1683 99.4463 63.0318L99.4525 63.2304L98.1243 61.9022L98.4347 61.896L98.2299 62.0201C98.114 62.0946 98.0126 62.1712 97.9257 62.2498C97.843 62.3243 97.7789 62.4091 97.7333 62.5043C97.6878 62.5953 97.6651 62.7029 97.6651 62.827C97.6651 63.0297 97.7375 63.1828 97.8823 63.2863C98.0271 63.3897 98.2195 63.4414 98.4595 63.4414ZM98.6147 60.1334C98.4492 60.1334 98.3126 60.1789 98.205 60.2699C98.1016 60.361 98.0499 60.4768 98.0499 60.6175C98.0499 60.7044 98.0685 60.7871 98.1057 60.8658C98.143 60.9444 98.1988 61.0271 98.2733 61.114C98.3519 61.1968 98.445 61.2919 98.5526 61.3995L98.3974 61.3436C98.5588 61.2485 98.6933 61.1616 98.8009 61.083C98.9084 61.0002 98.9891 60.9175 99.0429 60.8347C99.1008 60.752 99.1298 60.6671 99.1298 60.5803C99.1298 60.4396 99.0801 60.3299 98.9808 60.2513C98.8815 60.1727 98.7595 60.1334 98.6147 60.1334ZM104.211 64V59.6245H104.974L107.277 62.7029H107.308V59.6245H108.146V64H107.327L105.08 60.9713H105.049V64H104.211ZM109.17 64L111.137 59.6245H111.907L113.874 64H112.974L112.453 62.7773L112.825 63.0877H110.206L110.573 62.7773L110.051 64H109.17ZM111.497 60.5182L110.635 62.5601L110.479 62.3801H112.552L112.391 62.5601L111.535 60.5182H111.497ZM115.467 64V60.3692H113.978V59.6245H117.82V60.3692H116.33V64H115.467ZM118.898 64V59.6245H119.761V64H118.898ZM123.266 64.0621C122.939 64.0621 122.644 64.0103 122.379 63.9069C122.114 63.8035 121.886 63.6545 121.696 63.46C121.506 63.2614 121.359 63.0235 121.255 62.7463C121.156 62.4691 121.106 62.1567 121.106 61.8091C121.106 61.4616 121.156 61.1512 121.255 60.8782C121.359 60.6009 121.506 60.3651 121.696 60.1706C121.886 59.972 122.114 59.821 122.379 59.7176C122.644 59.6141 122.939 59.5624 123.266 59.5624C123.593 59.5624 123.889 59.6141 124.154 59.7176C124.419 59.821 124.644 59.97 124.83 60.1644C125.021 60.3589 125.165 60.5947 125.265 60.872C125.368 61.1492 125.42 61.4595 125.42 61.8029C125.42 62.1505 125.368 62.4629 125.265 62.7401C125.165 63.0173 125.021 63.2552 124.83 63.4538C124.644 63.6524 124.419 63.8035 124.154 63.9069C123.889 64.0103 123.593 64.0621 123.266 64.0621ZM123.266 63.3111C123.535 63.3111 123.763 63.2532 123.949 63.1373C124.139 63.0215 124.284 62.8518 124.383 62.6284C124.487 62.4049 124.539 62.1319 124.539 61.8091C124.539 61.4823 124.489 61.2092 124.39 60.9899C124.29 60.7664 124.146 60.5989 123.955 60.4872C123.765 60.3713 123.535 60.3134 123.266 60.3134C122.997 60.3134 122.768 60.3713 122.577 60.4872C122.387 60.5989 122.24 60.7664 122.137 60.9899C122.037 61.2092 121.988 61.4823 121.988 61.8091C121.988 62.1319 122.037 62.4049 122.137 62.6284C122.24 62.8518 122.387 63.0215 122.577 63.1373C122.768 63.2532 122.997 63.3111 123.266 63.3111ZM126.772 64V59.6245H127.535L129.838 62.7029H129.869V59.6245H130.707V64H129.887L127.641 60.9713H127.61V64H126.772ZM131.731 64L133.698 59.6245H134.468L136.435 64H135.535L135.014 62.7773L135.386 63.0877H132.767L133.133 62.7773L132.612 64H131.731ZM134.058 60.5182L133.195 62.5601L133.04 62.3801H135.113L134.952 62.5601L134.095 60.5182H134.058ZM137.458 64V59.6245H138.321V63.2552H140.425V64H137.458ZM143.738 64V59.6245H145.475C145.951 59.6245 146.355 59.7114 146.686 59.8851C147.021 60.0548 147.275 60.303 147.449 60.6299C147.627 60.9526 147.716 61.3457 147.716 61.8091C147.716 62.2725 147.627 62.6677 147.449 62.9946C147.275 63.3214 147.021 63.5718 146.686 63.7455C146.351 63.9152 145.947 64 145.475 64H143.738ZM144.6 63.2676H145.42C145.875 63.2676 146.224 63.1477 146.469 62.9077C146.713 62.6635 146.835 62.2974 146.835 61.8091C146.835 61.3209 146.713 60.9568 146.469 60.7168C146.224 60.4768 145.875 60.3568 145.42 60.3568H144.6V63.2676ZM149.072 64V59.6245H152.119V60.3506H149.934V61.4181H151.989V62.1505H149.934V63.2738H152.119V64H149.072ZM154.75 64L152.845 59.6245H153.77L155.11 62.9015H155.135L156.469 59.6245H157.4L155.489 64H154.75ZM158.261 64V59.6245H161.308V60.3506H159.123V61.4181H161.178V62.1505H159.123V63.2738H161.308V64H158.261ZM162.704 64V59.6245H163.567V63.2552H165.67V64H162.704ZM168.575 64.0621C168.249 64.0621 167.953 64.0103 167.688 63.9069C167.423 63.8035 167.196 63.6545 167.005 63.46C166.815 63.2614 166.668 63.0235 166.565 62.7463C166.465 62.4691 166.416 62.1567 166.416 61.8091C166.416 61.4616 166.465 61.1512 166.565 60.8782C166.668 60.6009 166.815 60.3651 167.005 60.1706C167.196 59.972 167.423 59.821 167.688 59.7176C167.953 59.6141 168.249 59.5624 168.575 59.5624C168.902 59.5624 169.198 59.6141 169.463 59.7176C169.728 59.821 169.953 59.97 170.139 60.1644C170.33 60.3589 170.475 60.5947 170.574 60.872C170.677 61.1492 170.729 61.4595 170.729 61.8029C170.729 62.1505 170.677 62.4629 170.574 62.7401C170.475 63.0173 170.33 63.2552 170.139 63.4538C169.953 63.6524 169.728 63.8035 169.463 63.9069C169.198 64.0103 168.902 64.0621 168.575 64.0621ZM168.575 63.3111C168.844 63.3111 169.072 63.2532 169.258 63.1373C169.448 63.0215 169.593 62.8518 169.693 62.6284C169.796 62.4049 169.848 62.1319 169.848 61.8091C169.848 61.4823 169.798 61.2092 169.699 60.9899C169.6 60.7664 169.455 60.5989 169.264 60.4872C169.074 60.3713 168.844 60.3134 168.575 60.3134C168.307 60.3134 168.077 60.3713 167.887 60.4872C167.696 60.5989 167.549 60.7664 167.446 60.9899C167.347 61.2092 167.297 61.4823 167.297 61.8091C167.297 62.1319 167.347 62.4049 167.446 62.6284C167.549 62.8518 167.696 63.0215 167.887 63.1373C168.077 63.2532 168.307 63.3111 168.575 63.3111ZM172.081 64V59.6245H174.098C174.417 59.6245 174.69 59.6803 174.917 59.792C175.145 59.8996 175.321 60.0568 175.445 60.2637C175.569 60.4706 175.631 60.7168 175.631 61.0023C175.631 61.2837 175.567 61.5298 175.438 61.7409C175.314 61.9519 175.139 62.1153 174.911 62.2312C174.683 62.347 174.412 62.4049 174.098 62.4049H172.944V64H172.081ZM172.944 61.6912H173.949C174.218 61.6912 174.423 61.6374 174.563 61.5298C174.704 61.4223 174.774 61.2506 174.774 61.0147C174.774 60.7789 174.704 60.6072 174.563 60.4996C174.427 60.392 174.222 60.3382 173.949 60.3382H172.944V61.6912ZM176.882 64V59.6245H177.887L179.203 62.3243H179.234L180.55 59.6245H181.543V64H180.705V60.903H180.674L179.519 63.2738H178.905L177.744 60.903H177.72V64H176.882ZM183.07 64V59.6245H186.117V60.3506H183.933V61.4181H185.987V62.1505H183.933V63.2738H186.117V64H183.07ZM187.513 64V59.6245H188.276L190.579 62.7029H190.61V59.6245H191.448V64H190.629L188.382 60.9713H188.351V64H187.513ZM194.017 64V60.3692H192.528V59.6245H196.37V60.3692H194.88V64H194.017Z" fill="#0D1B2A"/>
<path d="M19.6187 74.2112V70.1348H20.2778V74.2112H19.6187ZM22.0941 74.2112V70.1348H22.6955L25.0025 73.2051H25.0372V70.1348H25.6733V74.2112H25.043L22.7649 71.1698H22.7302V74.2112H22.0941ZM27.4889 74.2112V70.1348H28.0902L30.3973 73.2051H30.432V70.1348H31.068V74.2112H30.4378L28.1596 71.1698H28.1249V74.2112H27.4889ZM34.6761 74.2632C34.3754 74.2632 34.1037 74.217 33.8608 74.1245C33.6218 74.0281 33.4175 73.8893 33.2479 73.7081C33.0783 73.5231 32.9472 73.3034 32.8547 73.049C32.7622 72.7907 32.716 72.4978 32.716 72.1701C32.716 71.8463 32.7603 71.5572 32.849 71.3028C32.9415 71.0445 33.0725 70.8248 33.2421 70.6436C33.4156 70.4586 33.6218 70.3198 33.8608 70.2273C34.1037 70.1309 34.3754 70.0828 34.6761 70.0828C34.9768 70.0828 35.2466 70.1309 35.4856 70.2273C35.7246 70.3198 35.9289 70.4567 36.0985 70.6378C36.272 70.819 36.403 71.0387 36.4917 71.297C36.5842 71.5553 36.6304 71.8444 36.6304 72.1643C36.6304 72.492 36.5842 72.7849 36.4917 73.0432C36.403 73.3015 36.272 73.5231 36.0985 73.7081C35.9289 73.8893 35.7246 74.0281 35.4856 74.1245C35.2466 74.217 34.9768 74.2632 34.6761 74.2632ZM34.6761 73.685C34.9459 73.685 35.1753 73.6272 35.3642 73.5115C35.553 73.3959 35.6976 73.2263 35.7978 73.0027C35.9019 72.7753 35.9539 72.4978 35.9539 72.1701C35.9539 71.8386 35.9038 71.5611 35.8036 71.3375C35.7034 71.1139 35.5569 70.9462 35.3642 70.8344C35.1753 70.7188 34.9459 70.661 34.6761 70.661C34.4063 70.661 34.175 70.7188 33.9822 70.8344C33.7934 70.9462 33.6469 71.1139 33.5428 71.3375C33.4426 71.5611 33.3925 71.8386 33.3925 72.1701C33.3925 72.4978 33.4426 72.7753 33.5428 73.0027C33.6469 73.2263 33.7934 73.3959 33.9822 73.5115C34.175 73.6272 34.4063 73.685 34.6761 73.685ZM39.3329 74.2112L37.5694 70.1348H38.2806L39.6047 73.3554H39.6336L40.9577 70.1348H41.6689L39.8995 74.2112H39.3329ZM42.0987 74.2112L43.9085 70.1348H44.5041L46.3139 74.2112H45.62L45.1343 73.0605L45.435 73.2918H42.9718L43.2667 73.0605L42.7752 74.2112H42.0987ZM44.1861 70.846L43.3245 72.8755L43.18 72.7367H45.2269L45.0707 72.8755L44.2208 70.846H44.1861ZM48.2328 74.2112V70.713H46.8046V70.1348H50.3143V70.713H48.8862V74.2112H48.2328ZM51.6902 74.2112V70.1348H54.454V70.7014H52.3493V71.8636H54.3326V72.4303H52.3493V73.6445H54.454V74.2112H51.6902ZM59.4254 74.2112V70.713H57.9973V70.1348H61.507V70.713H60.0788V74.2112H59.4254ZM64.4212 74.2632C64.1205 74.2632 63.8487 74.217 63.6059 74.1245C63.3669 74.0281 63.1626 73.8893 62.993 73.7081C62.8234 73.5231 62.6923 73.3034 62.5998 73.049C62.5073 72.7907 62.461 72.4978 62.461 72.1701C62.461 71.8463 62.5054 71.5572 62.594 71.3028C62.6865 71.0445 62.8176 70.8248 62.9872 70.6436C63.1607 70.4586 63.3669 70.3198 63.6059 70.2273C63.8487 70.1309 64.1205 70.0828 64.4212 70.0828C64.7218 70.0828 64.9917 70.1309 65.2307 70.2273C65.4697 70.3198 65.674 70.4567 65.8436 70.6378C66.017 70.819 66.1481 71.0387 66.2368 71.297C66.3293 71.5553 66.3755 71.8444 66.3755 72.1643C66.3755 72.492 66.3293 72.7849 66.2368 73.0432C66.1481 73.3015 66.017 73.5231 65.8436 73.7081C65.674 73.8893 65.4697 74.0281 65.2307 74.1245C64.9917 74.217 64.7218 74.2632 64.4212 74.2632ZM64.4212 73.685C64.691 73.685 64.9204 73.6272 65.1092 73.5115C65.2981 73.3959 65.4427 73.2263 65.5429 73.0027C65.647 72.7753 65.699 72.4978 65.699 72.1701C65.699 71.8386 65.6489 71.5611 65.5487 71.3375C65.4485 71.1139 65.302 70.9462 65.1092 70.8344C64.9204 70.7188 64.691 70.661 64.4212 70.661C64.1513 70.661 63.9201 70.7188 63.7273 70.8344C63.5384 70.9462 63.392 71.1139 63.2879 71.3375C63.1877 71.5611 63.1376 71.8386 63.1376 72.1701C63.1376 72.4978 63.1877 72.7753 63.2879 73.0027C63.392 73.2263 63.5384 73.3959 63.7273 73.5115C63.9201 73.6272 64.1513 73.685 64.4212 73.685ZM68.0291 74.2112V70.1348H69.5614C70.0008 70.1348 70.3728 70.2157 70.6773 70.3776C70.9857 70.5357 71.2189 70.767 71.377 71.0715C71.5389 71.3722 71.6198 71.7384 71.6198 72.1701C71.6198 72.6018 71.5389 72.97 71.377 73.2745C71.2151 73.579 70.9799 73.8122 70.6715 73.9741C70.367 74.1322 69.997 74.2112 69.5614 74.2112H68.0291ZM68.6883 73.6445H69.5209C69.9796 73.6445 70.3304 73.5231 70.5732 73.2803C70.8199 73.0374 70.9433 72.6674 70.9433 72.1701C70.9433 71.6728 70.8219 71.3047 70.579 71.0657C70.3362 70.8229 69.9835 70.7014 69.5209 70.7014H68.6883V73.6445ZM72.7529 74.2112L74.5627 70.1348H75.1583L76.9681 74.2112H76.2742L75.7885 73.0605L76.0892 73.2918H73.626L73.9209 73.0605L73.4294 74.2112H72.7529ZM74.8403 70.846L73.9787 72.8755L73.8342 72.7367H75.881L75.7249 72.8755L74.875 70.846H74.8403ZM78.8796 74.2112V72.0891L78.9952 72.5806L77.3531 70.1348H78.0874L79.2034 71.8116H79.2323L80.3482 70.1348H81.071L79.4289 72.5806L79.5387 72.0891V74.2112H78.8796ZM81.6958 74.2112V73.4537H82.5168V74.2112H81.6958Z" fill="#00A9B7"/>
<path d="M87.4088 74.2112V70.713H85.9806V70.1348H89.4903V70.713H88.0622V74.2112H87.4088ZM90.8662 74.2112V70.1348H92.6413C93.0961 70.1348 93.445 70.2369 93.6878 70.4413C93.9345 70.6417 94.0579 70.9366 94.0579 71.3259C94.0579 71.5302 94.0193 71.7075 93.9423 71.8579C93.8652 72.0043 93.7592 72.1258 93.6242 72.2221C93.4932 72.3147 93.3428 72.3821 93.1732 72.4245V72.4592L93.2021 72.4708C93.2715 72.4978 93.3351 72.5421 93.393 72.6038C93.4508 72.6616 93.5125 72.7522 93.578 72.8755L94.2834 74.2112H93.5606L92.9073 72.968C92.8571 72.8678 92.8013 72.7907 92.7396 72.7367C92.6779 72.6828 92.6047 72.6462 92.5199 72.6269C92.4389 72.6038 92.3406 72.5922 92.225 72.5922H91.5253V74.2112H90.8662ZM91.5253 72.0487H92.6008C92.8822 72.0487 93.0846 71.9928 93.2079 71.881C93.3351 71.7654 93.3987 71.59 93.3987 71.3548C93.3987 71.1235 93.3313 70.9559 93.1964 70.8518C93.0653 70.7438 92.8571 70.6899 92.5719 70.6899H91.5253V72.0487ZM95.2625 74.2112L97.0723 70.1348H97.6678L99.4776 74.2112H98.7838L98.2981 73.0605L98.5987 73.2918H96.1356L96.4305 73.0605L95.939 74.2112H95.2625ZM97.3498 70.846L96.4883 72.8755L96.3437 72.7367H98.3906L98.2345 72.8755L97.3845 70.846H97.3498ZM100.854 74.2112V70.1348H101.455L103.762 73.2051H103.797V70.1348H104.433V74.2112H103.803L101.525 71.1698H101.49V74.2112H100.854ZM107.683 74.2632C107.455 74.2632 107.235 74.2478 107.023 74.217C106.815 74.19 106.624 74.1437 106.451 74.0782C106.278 74.0127 106.127 73.9317 106 73.8353L106.231 73.2976C106.366 73.394 106.509 73.4711 106.659 73.5289C106.813 73.5867 106.977 73.6272 107.151 73.6503C107.324 73.6734 107.501 73.685 107.683 73.685C107.976 73.685 108.201 73.631 108.359 73.5231C108.521 73.4113 108.602 73.2533 108.602 73.049C108.602 72.941 108.575 72.8543 108.521 72.7888C108.471 72.7194 108.39 72.6654 108.278 72.6269C108.17 72.5845 108.029 72.5479 107.856 72.517L107.174 72.3898C106.784 72.3166 106.507 72.1836 106.341 71.9909C106.175 71.7981 106.092 71.5572 106.092 71.2681C106.092 71.0252 106.164 70.8152 106.306 70.6378C106.449 70.4605 106.644 70.3237 106.89 70.2273C107.141 70.1309 107.426 70.0828 107.746 70.0828C107.943 70.0828 108.128 70.1001 108.301 70.1348C108.479 70.1656 108.639 70.2157 108.781 70.2851C108.928 70.3507 109.057 70.4335 109.169 70.5338L108.937 71.0715C108.772 70.9212 108.588 70.8152 108.388 70.7535C108.191 70.6918 107.976 70.661 107.74 70.661C107.555 70.661 107.386 70.6841 107.232 70.7304C107.081 70.7766 106.964 70.8441 106.879 70.9327C106.794 71.0214 106.752 71.1351 106.752 71.2739C106.752 71.4242 106.8 71.5418 106.896 71.6266C106.993 71.7075 107.166 71.7711 107.417 71.8174L108.093 71.9388C108.494 72.0082 108.789 72.1354 108.978 72.3204C109.167 72.5016 109.261 72.7348 109.261 73.0201C109.261 73.2629 109.196 73.4788 109.064 73.6677C108.933 73.8527 108.75 73.9992 108.515 74.1071C108.28 74.2112 108.003 74.2632 107.683 74.2632ZM110.796 74.2112V70.1348H113.554V70.7014H111.456V71.9041H113.439V72.4708H111.456V74.2112H110.796ZM116.758 74.2632C116.458 74.2632 116.186 74.217 115.943 74.1245C115.704 74.0281 115.5 73.8893 115.33 73.7081C115.16 73.5231 115.029 73.3034 114.937 73.049C114.844 72.7907 114.798 72.4978 114.798 72.1701C114.798 71.8463 114.842 71.5572 114.931 71.3028C115.024 71.0445 115.155 70.8248 115.324 70.6436C115.498 70.4586 115.704 70.3198 115.943 70.2273C116.186 70.1309 116.458 70.0828 116.758 70.0828C117.059 70.0828 117.329 70.1309 117.568 70.2273C117.807 70.3198 118.011 70.4567 118.181 70.6378C118.354 70.819 118.485 71.0387 118.574 71.297C118.666 71.5553 118.713 71.8444 118.713 72.1643C118.713 72.492 118.666 72.7849 118.574 73.0432C118.485 73.3015 118.354 73.5231 118.181 73.7081C118.011 73.8893 117.807 74.0281 117.568 74.1245C117.329 74.217 117.059 74.2632 116.758 74.2632ZM116.758 73.685C117.028 73.685 117.257 73.6272 117.446 73.5115C117.635 73.3959 117.78 73.2263 117.88 73.0027C117.984 72.7753 118.036 72.4978 118.036 72.1701C118.036 71.8386 117.986 71.5611 117.886 71.3375C117.786 71.1139 117.639 70.9462 117.446 70.8344C117.257 70.7188 117.028 70.661 116.758 70.661C116.488 70.661 116.257 70.7188 116.064 70.8344C115.876 70.9462 115.729 71.1139 115.625 71.3375C115.525 71.5611 115.475 71.8386 115.475 72.1701C115.475 72.4978 115.525 72.7753 115.625 73.0027C115.729 73.2263 115.876 73.3959 116.064 73.5115C116.257 73.6272 116.488 73.685 116.758 73.685ZM120.366 74.2112V70.1348H122.141C122.596 70.1348 122.945 70.2369 123.188 70.4413C123.435 70.6417 123.558 70.9366 123.558 71.3259C123.558 71.5302 123.519 71.7075 123.442 71.8579C123.365 72.0043 123.259 72.1258 123.124 72.2221C122.993 72.3147 122.843 72.3821 122.673 72.4245V72.4592L122.702 72.4708C122.772 72.4978 122.835 72.5421 122.893 72.6038C122.951 72.6616 123.012 72.7522 123.078 72.8755L123.783 74.2112H123.061L122.407 72.968C122.357 72.8678 122.301 72.7907 122.24 72.7367C122.178 72.6828 122.105 72.6462 122.02 72.6269C121.939 72.6038 121.841 72.5922 121.725 72.5922H121.025V74.2112H120.366ZM121.025 72.0487H122.101C122.382 72.0487 122.585 71.9928 122.708 71.881C122.835 71.7654 122.899 71.59 122.899 71.3548C122.899 71.1235 122.831 70.9559 122.696 70.8518C122.565 70.7438 122.357 70.6899 122.072 70.6899H121.025V72.0487ZM125.281 74.2112V70.1348H126.073L127.38 72.8061H127.409L128.71 70.1348H129.491V74.2112H128.855V71.1004H128.826L127.629 73.5462H127.149L125.952 71.1004H125.917V74.2112H125.281ZM134.603 74.2112V70.713H133.175V70.1348H136.685V70.713H135.256V74.2112H134.603ZM139.599 74.2632C139.298 74.2632 139.026 74.217 138.783 74.1245C138.544 74.0281 138.34 73.8893 138.171 73.7081C138.001 73.5231 137.87 73.3034 137.777 73.049C137.685 72.7907 137.639 72.4978 137.639 72.1701C137.639 71.8463 137.683 71.5572 137.772 71.3028C137.864 71.0445 137.995 70.8248 138.165 70.6436C138.338 70.4586 138.544 70.3198 138.783 70.2273C139.026 70.1309 139.298 70.0828 139.599 70.0828C139.899 70.0828 140.169 70.1309 140.408 70.2273C140.647 70.3198 140.851 70.4567 141.021 70.6378C141.195 70.819 141.326 71.0387 141.414 71.297C141.507 71.5553 141.553 71.8444 141.553 72.1643C141.553 72.492 141.507 72.7849 141.414 73.0432C141.326 73.3015 141.195 73.5231 141.021 73.7081C140.851 73.8893 140.647 74.0281 140.408 74.1245C140.169 74.217 139.899 74.2632 139.599 74.2632ZM139.599 73.685C139.869 73.685 140.098 73.6272 140.287 73.5115C140.476 73.3959 140.62 73.2263 140.72 73.0027C140.824 72.7753 140.877 72.4978 140.877 72.1701C140.877 71.8386 140.826 71.5611 140.726 71.3375C140.626 71.1139 140.479 70.9462 140.287 70.8344C140.098 70.7188 139.869 70.661 139.599 70.661C139.329 70.661 139.098 70.7188 138.905 70.8344C138.716 70.9462 138.569 71.1139 138.465 71.3375C138.365 71.5611 138.315 71.8386 138.315 72.1701C138.315 72.4978 138.365 72.7753 138.465 73.0027C138.569 73.2263 138.716 73.3959 138.905 73.5115C139.098 73.6272 139.329 73.685 139.599 73.685ZM143.218 74.2112V70.1348H144.01L145.317 72.8061H145.346L146.647 70.1348H147.428V74.2112H146.792V71.1004H146.763L145.566 73.5462H145.086L143.889 71.1004H143.854V74.2112H143.218ZM151.049 74.2632C150.748 74.2632 150.476 74.217 150.234 74.1245C149.995 74.0281 149.79 73.8893 149.621 73.7081C149.451 73.5231 149.32 73.3034 149.227 73.049C149.135 72.7907 149.089 72.4978 149.089 72.1701C149.089 71.8463 149.133 71.5572 149.222 71.3028C149.314 71.0445 149.445 70.8248 149.615 70.6436C149.788 70.4586 149.995 70.3198 150.234 70.2273C150.476 70.1309 150.748 70.0828 151.049 70.0828C151.35 70.0828 151.619 70.1309 151.858 70.2273C152.097 70.3198 152.302 70.4567 152.471 70.6378C152.645 70.819 152.776 71.0387 152.864 71.297C152.957 71.5553 153.003 71.8444 153.003 72.1643C153.003 72.492 152.957 72.7849 152.864 73.0432C152.776 73.3015 152.645 73.5231 152.471 73.7081C152.302 73.8893 152.097 74.0281 151.858 74.1245C151.619 74.217 151.35 74.2632 151.049 74.2632ZM151.049 73.685C151.319 73.685 151.548 73.6272 151.737 73.5115C151.926 73.3959 152.07 73.2263 152.171 73.0027C152.275 72.7753 152.327 72.4978 152.327 72.1701C152.327 71.8386 152.277 71.5611 152.176 71.3375C152.076 71.1139 151.93 70.9462 151.737 70.8344C151.548 70.7188 151.319 70.661 151.049 70.661C150.779 70.661 150.548 70.7188 150.355 70.8344C150.166 70.9462 150.02 71.1139 149.916 71.3375C149.815 71.5611 149.765 71.8386 149.765 72.1701C149.765 72.4978 149.815 72.7753 149.916 73.0027C150.02 73.2263 150.166 73.3959 150.355 73.5115C150.548 73.6272 150.779 73.685 151.049 73.685ZM154.657 74.2112V70.1348H156.432C156.887 70.1348 157.236 70.2369 157.478 70.4413C157.725 70.6417 157.848 70.9366 157.848 71.3259C157.848 71.5302 157.81 71.7075 157.733 71.8579C157.656 72.0043 157.55 72.1258 157.415 72.2221C157.284 72.3147 157.133 72.3821 156.964 72.4245V72.4592L156.993 72.4708C157.062 72.4978 157.126 72.5421 157.184 72.6038C157.241 72.6616 157.303 72.7522 157.369 72.8755L158.074 74.2112H157.351L156.698 72.968C156.648 72.8678 156.592 72.7907 156.53 72.7367C156.468 72.6828 156.395 72.6462 156.31 72.6269C156.23 72.6038 156.131 72.5922 156.016 72.5922H155.316V74.2112H154.657ZM155.316 72.0487H156.391C156.673 72.0487 156.875 71.9928 156.999 71.881C157.126 71.7654 157.189 71.59 157.189 71.3548C157.189 71.1235 157.122 70.9559 156.987 70.8518C156.856 70.7438 156.648 70.6899 156.362 70.6899H155.316V72.0487ZM159.56 74.2112V70.1348H161.335C161.79 70.1348 162.139 70.2369 162.382 70.4413C162.629 70.6417 162.752 70.9366 162.752 71.3259C162.752 71.5302 162.713 71.7075 162.636 71.8579C162.559 72.0043 162.453 72.1258 162.318 72.2221C162.187 72.3147 162.037 72.3821 161.867 72.4245V72.4592L161.896 72.4708C161.966 72.4978 162.029 72.5421 162.087 72.6038C162.145 72.6616 162.207 72.7522 162.272 72.8755L162.977 74.2112H162.255L161.601 72.968C161.551 72.8678 161.495 72.7907 161.434 72.7367C161.372 72.6828 161.299 72.6462 161.214 72.6269C161.133 72.6038 161.035 72.5922 160.919 72.5922H160.219V74.2112H159.56ZM160.219 72.0487H161.295C161.576 72.0487 161.779 71.9928 161.902 71.881C162.029 71.7654 162.093 71.59 162.093 71.3548C162.093 71.1235 162.025 70.9559 161.89 70.8518C161.759 70.7438 161.551 70.6899 161.266 70.6899H160.219V72.0487ZM166.228 74.2632C165.927 74.2632 165.656 74.217 165.413 74.1245C165.174 74.0281 164.969 73.8893 164.8 73.7081C164.63 73.5231 164.499 73.3034 164.407 73.049C164.314 72.7907 164.268 72.4978 164.268 72.1701C164.268 71.8463 164.312 71.5572 164.401 71.3028C164.493 71.0445 164.624 70.8248 164.794 70.6436C164.967 70.4586 165.174 70.3198 165.413 70.2273C165.656 70.1309 165.927 70.0828 166.228 70.0828C166.529 70.0828 166.798 70.1309 167.037 70.2273C167.276 70.3198 167.481 70.4567 167.65 70.6378C167.824 70.819 167.955 71.0387 168.044 71.297C168.136 71.5553 168.182 71.8444 168.182 72.1643C168.182 72.492 168.136 72.7849 168.044 73.0432C167.955 73.3015 167.824 73.5231 167.65 73.7081C167.481 73.8893 167.276 74.0281 167.037 74.1245C166.798 74.217 166.529 74.2632 166.228 74.2632ZM166.228 73.685C166.498 73.685 166.727 73.6272 166.916 73.5115C167.105 73.3959 167.249 73.2263 167.35 73.0027C167.454 72.7753 167.506 72.4978 167.506 72.1701C167.506 71.8386 167.456 71.5611 167.355 71.3375C167.255 71.1139 167.109 70.9462 166.916 70.8344C166.727 70.7188 166.498 70.661 166.228 70.661C165.958 70.661 165.727 70.7188 165.534 70.8344C165.345 70.9462 165.199 71.1139 165.095 71.3375C164.994 71.5611 164.944 71.8386 164.944 72.1701C164.944 72.4978 164.994 72.7753 165.095 73.0027C165.199 73.2263 165.345 73.3959 165.534 73.5115C165.727 73.6272 165.958 73.685 166.228 73.685ZM170.659 74.2112L169.405 70.1348H170.104L171.012 73.3323H171.041L172.122 70.1348H172.643L173.712 73.3323H173.741L174.666 70.1348H175.331L174.077 74.2112H173.44L172.388 71.0946H172.359L171.272 74.2112H170.659ZM176.299 74.2112V73.4537H177.12V74.2112H176.299Z" fill="#F0AB1F"/>
<rect y="72" width="14" height="1" fill="#F0AB1F"/>
<rect width="14" height="1" transform="matrix(1 0 0 -1 182 73)" fill="#F0AB1F"/>
</svg>
